<?xml version="1.0" standalone="no"?>
<!DOCTYPE svg PUBLIC "-//W3C//DTD SVG 20010904//EN"
 "http://www.w3.org/TR/2001/REC-SVG-20010904/DTD/svg10.dtd">
<svg version="1.0" xmlns="http://www.w3.org/2000/svg"
 width="500.000000pt" height="500.000000pt" viewBox="0 0 500.000000 500.000000"
 preserveAspectRatio="xMidYMid meet">
<metadata>
Created by potrace 1.14, written by Peter Selinger 2001-2017
</metadata>
<g transform="translate(0.000000,500.000000) scale(0.100000,-0.100000)"
fill="#000000" stroke="none">
<path d="M2373 4887 c0 -12 -12 -46 -25 -76 l-24 -53 -33 50 c-18 28 -34 59
-35 69 -3 15 -11 17 -47 14 -24 -1 -45 -4 -45 -5 -1 0 2 -25 7 -55 4 -30 9
-85 11 -123 l2 -68 34 0 c27 0 32 3 28 18 -7 28 -18 132 -13 132 3 0 24 -29
47 -65 23 -36 45 -65 49 -65 3 1 23 36 43 78 l36 77 1 -79 1 -78 31 6 c17 3
35 6 40 6 5 0 4 11 -1 25 -5 14 -11 68 -12 120 l-3 95 -45 0 c-40 0 -45 -3
-47 -23z"/>
<path d="M2694 4881 c-46 -28 -64 -59 -64 -112 0 -99 95 -151 214 -117 52 15
50 12 35 40 -17 32 -16 32 -34 14 -10 -10 -33 -16 -61 -16 -56 0 -94 33 -94
80 0 81 106 107 167 40 l20 -20 18 20 c18 20 18 21 -1 36 -66 53 -148 67 -200
35z"/>
<path d="M1952 4848 c-34 -7 -41 -12 -33 -22 8 -10 4 -42 -13 -117 -13 -57
-27 -111 -31 -121 -6 -14 -2 -15 34 -6 34 9 40 14 36 32 -7 30 4 41 55 54 38
9 47 9 63 -5 10 -9 15 -23 13 -30 -6 -16 -2 -16 46 -3 l38 11 -81 96 c-44 54
-77 103 -75 110 6 15 7 14 -52 1z m42 -140 c-15 -4 -29 -6 -31 -4 -2 1 0 18 4
36 l6 33 25 -28 25 -29 -29 -8z"/>
<path d="M2970 4836 c0 -25 -32 -166 -45 -198 -7 -18 2 -21 132 -52 34 -7 66
-17 72 -20 11 -7 16 -1 24 34 6 23 3 25 -31 26 -60 3 -122 23 -122 40 0 29 34
159 43 165 12 8 0 15 -40 24 -30 6 -33 5 -33 -19z"/>
<path d="M3240 4774 c0 -33 -61 -204 -73 -204 -18 0 5 -16 41 -28 28 -10 32
-9 32 7 0 23 57 190 70 206 8 10 4 14 -14 19 -13 3 -31 9 -40 12 -11 4 -16 0
-16 -12z"/>
<path d="M1710 4773 c-30 -10 -175 -66 -180 -70 -2 -2 1 -7 7 -11 13 -9 83
-179 83 -204 0 -15 3 -16 28 -6 42 18 43 22 23 64 -21 43 -19 49 20 59 21 5
33 -1 63 -29 36 -34 38 -34 72 -20 41 17 42 25 7 42 -16 7 -37 19 -47 27 -18
14 -18 16 -3 33 44 49 -11 136 -73 115z m25 -77 c0 -13 -16 -26 -52 -41 l-52
-23 -9 28 c-10 26 -8 29 26 43 49 21 87 18 87 -7z"/>
<path d="M3380 4731 c0 -6 -79 -178 -97 -212 -2 -3 9 -9 24 -15 27 -10 29 -8
62 61 l33 70 29 -85 c16 -46 27 -91 24 -100 -4 -11 5 -20 28 -28 42 -15 47
-15 47 2 0 17 80 189 92 197 4 3 -8 13 -27 22 -33 16 -35 16 -35 -1 -1 -9 -13
-41 -28 -70 l-28 -53 -28 80 c-16 45 -26 87 -23 94 3 9 -8 20 -29 31 -40 18
-44 19 -44 7z"/>
<path d="M1348 4614 c-28 -15 -36 -29 -20 -36 13 -4 105 -168 105 -184 0 -21
4 -20 65 21 1 1 -23 43 -53 94 -30 50 -55 98 -55 106 0 18 -7 18 -42 -1z"/>
<path d="M2348 4586 c-18 -9 -28 -11 -28 -4 0 7 -13 8 -37 4 -21 -4 -54 -9
-73 -11 -19 -1 -46 -5 -60 -9 -14 -3 -37 -7 -52 -8 -16 -1 -28 -6 -28 -11 0
-4 -4 -5 -10 -2 -5 3 -29 0 -52 -6 -24 -7 -50 -14 -58 -15 -47 -9 -186 -59
-193 -70 -4 -7 -14 -11 -22 -8 -8 3 -27 -1 -42 -9 -15 -8 -45 -22 -66 -31 -21
-9 -35 -21 -32 -26 3 -6 -1 -7 -9 -4 -9 3 -16 1 -16 -5 0 -6 -6 -8 -14 -5 -7
3 -20 -2 -29 -10 -8 -8 -17 -12 -21 -9 -3 4 -6 -2 -6 -13 0 -16 -2 -17 -10 -4
-9 13 -14 7 -11 -12 0 -4 -6 -5 -14 -2 -8 4 -15 1 -15 -4 0 -6 -9 -14 -21 -17
-15 -5 -19 -13 -15 -28 5 -21 4 -21 -9 -3 -13 18 -15 17 -47 -5 -68 -48 -108
-83 -108 -95 0 -7 -9 -18 -20 -24 -15 -8 -20 -8 -20 1 0 7 -8 5 -20 -6 -11
-10 -17 -21 -15 -25 3 -4 -3 -14 -13 -21 -16 -13 -16 -13 -2 5 13 17 13 19 0
14 -8 -2 -20 -14 -26 -26 -6 -12 -14 -19 -19 -14 -4 4 -6 0 -3 -9 4 -9 1 -16
-7 -16 -17 0 -74 -46 -72 -58 1 -5 -2 -11 -7 -12 -29 -5 -183 -193 -270 -328
-63 -98 -162 -295 -196 -390 -28 -79 -49 -147 -48 -154 1 -3 -1 -13 -5 -21
-56 -145 -90 -512 -68 -725 19 -170 37 -278 52 -306 4 -9 6 -18 4 -21 -8 -8
65 -228 76 -228 6 0 8 -4 5 -9 -7 -11 16 -71 27 -71 4 0 5 -4 2 -10 -3 -5 -1
-10 4 -10 6 0 10 -3 9 -7 -4 -21 57 -141 145 -283 49 -78 61 -93 186 -240 137
-160 373 -362 402 -344 7 4 9 3 6 -3 -11 -18 187 -135 212 -126 8 3 11 1 8 -4
-8 -12 149 -86 163 -78 6 4 10 2 10 -4 0 -14 200 -77 321 -101 162 -32 307
-43 507 -37 208 5 348 29 547 90 98 31 252 92 265 107 3 3 12 6 20 8 23 5 197
107 268 157 35 25 100 75 144 112 45 38 90 75 101 84 12 10 17 21 12 29 -5 8
-4 11 2 7 12 -8 130 112 194 198 114 150 265 414 254 443 -2 7 -1 11 4 8 19
-12 108 265 142 448 30 159 37 455 14 631 -17 136 -79 398 -95 403 -5 2 -6 10
-3 18 3 8 0 14 -6 14 -6 0 -10 3 -10 8 1 4 1 16 0 27 -1 17 -3 18 -12 5 -9
-13 -10 -12 -5 2 7 24 -34 129 -47 121 -5 -3 -7 -1 -3 5 7 12 -13 62 -26 62
-4 0 -7 3 -6 8 4 16 -14 52 -24 46 -7 -4 -8 -2 -4 4 12 19 -148 260 -226 343
-29 31 -46 46 -38 35 15 -21 15 -21 -7 -3 -12 11 -20 24 -17 31 6 15 -29 48
-47 44 -8 -2 -13 2 -12 9 2 7 -16 31 -38 53 -41 40 -42 40 -63 23 l-21 -18 19
23 c17 20 15 27 -7 23 -5 -1 -6 3 -3 8 8 12 -34 42 -47 34 -6 -4 -7 -1 -3 6 6
8 2 11 -10 9 -13 -2 -18 2 -16 15 2 9 -1 17 -5 17 -4 0 -32 18 -61 40 -30 23
-58 37 -65 34 -7 -4 -9 -4 -5 1 8 9 -31 42 -44 37 -5 -1 -8 3 -8 8 0 6 -7 10
-15 10 -8 0 -15 4 -15 9 0 6 -9 8 -20 6 -11 -2 -18 0 -15 5 3 5 -4 14 -15 20
-14 8 -20 8 -20 0 0 -6 -5 -8 -10 -5 -6 4 -8 10 -5 14 2 5 -28 24 -68 43 l-72
36 -12 -22 c-12 -20 -13 -19 -9 7 4 22 2 27 -10 23 -7 -3 -14 -1 -14 3 0 5 -7
12 -16 15 -8 3 -13 2 -9 -3 6 -11 -22 -8 -32 4 -4 4 -2 5 6 0 10 -6 12 -4 7 4
-6 9 -11 9 -22 0 -12 -10 -14 -10 -12 0 3 14 -100 53 -115 44 -5 -3 -13 0 -17
6 -4 7 -19 13 -33 15 -15 1 -30 5 -33 9 -3 3 -17 3 -30 1 -13 -2 -24 0 -24 5
0 9 -86 28 -159 35 -32 3 -41 2 -30 -6 11 -8 10 -9 -4 -4 -10 3 -23 6 -28 6
-6 0 -7 5 -4 10 4 6 -12 10 -42 10 -26 0 -58 3 -71 6 -17 5 -21 3 -17 -8 5
-12 -5 -16 -46 -20 -29 -3 -64 -2 -78 2 -20 6 -12 9 34 10 33 1 63 2 68 1 4 0
7 3 7 8 0 16 -202 13 -232 -3z m-41 -12 c-3 -3 -12 -4 -19 -1 -8 3 -5 6 6 6
11 1 17 -2 13 -5z m-100 -10 c-3 -3 -12 -4 -19 -1 -8 3 -5 6 6 6 11 1 17 -2
13 -5z m650 -10 c-3 -3 -12 -4 -19 -1 -8 3 -5 6 6 6 11 1 17 -2 13 -5z m-700
-10 c-3 -3 -12 -4 -19 -1 -8 3 -5 6 6 6 11 1 17 -2 13 -5z m-257 -64 c0 -5 -5
-10 -11 -10 -5 0 -7 5 -4 10 3 6 8 10 11 10 2 0 4 -4 4 -10z m-34 -27 c-1 -1
-12 0 -25 4 -15 4 -19 8 -10 13 10 7 42 -10 35 -17z m554 -241 l0 -208 -32
-12 c-47 -17 -99 -63 -127 -111 l-23 -42 47 35 c25 20 51 36 56 36 18 0 -32
-61 -72 -87 -55 -36 -42 -40 29 -8 63 28 100 60 127 110 11 20 15 23 12 9 -2
-12 0 -30 6 -40 9 -17 9 -17 -6 -6 -14 12 -16 -6 -17 -210 l-1 -222 -37 -30
c-20 -16 -97 -89 -171 -163 l-134 -135 5 53 c3 44 16 74 66 157 65 111 86 178
76 245 -9 59 -25 83 -18 26 13 -94 -13 -160 -123 -319 l-42 -61 -40 78 c-37
73 -130 225 -131 213 0 -3 34 -72 75 -153 41 -80 75 -157 75 -169 0 -40 -85
-311 -99 -316 -18 -6 -131 112 -165 173 -33 61 -63 146 -75 217 l-9 53 -1 -45
c0 -25 6 -72 14 -104 9 -33 13 -61 10 -64 -10 -10 -121 18 -197 49 -91 37
-205 99 -283 153 -85 59 -93 64 -77 44 50 -62 338 -215 487 -258 44 -13 86
-28 92 -33 18 -13 105 -143 133 -197 24 -46 30 -133 15 -221 -6 -34 -9 -37
-44 -41 -61 -5 -71 0 -71 37 0 38 -19 58 -52 53 -19 -2 -24 -10 -26 -44 l-3
-41 -138 -5 c-113 -3 -142 -7 -156 -21 -15 -15 -47 -17 -296 -17 -179 0 -279
4 -279 10 0 6 63 10 168 11 278 3 301 3 296 8 -2 3 -127 6 -277 6 -150 1 -296
3 -326 3 l-54 2 7 83 c4 45 14 123 23 172 9 50 17 102 17 117 1 14 3 24 5 22
2 -2 24 56 48 129 24 75 74 192 115 272 39 77 70 141 70 143 -1 1 -2 8 -2 15
0 9 2 9 9 -1 7 -11 9 -11 14 2 4 9 4 24 1 34 -4 12 -3 13 3 4 7 -10 25 7 68
65 207 275 502 498 826 625 175 69 416 124 562 127 l47 1 0 -208z m300 198
c119 -15 252 -44 359 -80 50 -17 96 -28 101 -25 6 3 10 2 10 -3 0 -14 148 -74
162 -66 7 4 8 3 4 -4 -6 -11 31 -38 47 -34 4 1 7 -3 7 -8 0 -6 6 -10 13 -10 6
0 41 -20 76 -45 35 -24 69 -42 75 -38 6 3 8 3 4 -2 -4 -4 28 -33 70 -65 80
-60 215 -187 294 -277 25 -29 49 -49 53 -45 5 4 5 2 2 -4 -4 -6 17 -45 45 -85
29 -41 73 -109 99 -151 25 -43 50 -74 54 -70 5 4 5 1 1 -6 -4 -7 11 -51 33
-101 23 -48 41 -93 41 -100 0 -7 5 -9 12 -5 6 4 8 3 4 -4 -3 -6 7 -57 23 -114
16 -57 36 -139 45 -183 18 -95 37 -267 31 -274 -3 -2 -45 -5 -93 -5 -48 -1
-86 -4 -84 -8 1 -5 2 -13 2 -19 0 -5 3 -8 8 -6 4 3 8 -9 9 -26 l2 -32 -15 35
c-9 19 -16 39 -17 45 -1 5 -9 14 -18 20 -9 5 -28 18 -43 29 -46 33 -156 67
-236 73 -83 6 -136 -5 -164 -36 -15 -17 -14 -18 9 -29 28 -13 34 -42 9 -42 -8
0 -12 -4 -9 -10 3 -5 1 -10 -4 -10 -6 0 -11 3 -11 8 0 4 -44 7 -98 7 -53 -1
-109 1 -125 3 -25 4 -27 7 -22 36 9 43 -23 72 -72 67 -9 -1 -13 -18 -13 -51 0
-54 -7 -61 -35 -30 -18 20 -45 27 -45 11 0 -4 11 -24 24 -43 l23 -35 -23 11
c-12 6 -22 15 -21 20 1 5 -4 11 -12 14 -8 2 -11 0 -8 -5 3 -5 0 -10 -8 -10 -8
0 -12 4 -9 9 3 4 -4 8 -15 8 -12 0 -21 -4 -21 -10 0 -5 -5 -10 -11 -10 -5 0
-7 5 -3 12 5 8 2 9 -9 5 -10 -4 -17 -1 -17 6 0 7 -5 19 -10 27 -9 13 -14 10
-34 -14 l-24 -29 -7 39 c-9 54 -13 64 -24 64 -24 0 -41 -34 -42 -83 -1 -31 -4
-44 -7 -32 -6 18 -17 20 -112 23 l-104 3 19 -23 c11 -13 4 -9 -15 9 -19 17
-48 37 -65 43 -33 12 -201 11 -225 -1 -61 -32 -120 -58 -120 -54 0 3 27 19 60
34 33 16 57 31 54 34 -3 3 0 8 7 13 8 5 10 3 4 -6 -5 -9 -4 -11 3 -6 9 5 9 12
0 26 -10 15 -15 17 -27 7 -12 -9 -13 -9 -7 1 4 7 2 12 -5 12 -9 0 -9 3 0 14 8
10 9 16 1 21 -5 3 -10 1 -10 -4 0 -6 -4 -11 -9 -11 -5 0 -7 8 -4 19 3 11 -2
21 -11 24 -9 4 -16 12 -16 19 0 10 2 10 9 -1 5 -8 14 -10 21 -6 8 5 11 4 6 -3
-3 -5 -3 -12 1 -14 5 -1 21 -20 36 -40 15 -21 34 -38 42 -38 14 0 35 50 35 84
-1 32 -34 98 -71 142 -19 21 -26 33 -16 25 24 -19 31 -9 33 47 l2 47 41 6 c58
8 63 19 8 19 -41 0 -47 3 -47 20 0 25 -29 38 -41 19 -5 -8 -9 -9 -9 -2 0 6 -8
9 -19 6 -10 -3 -21 -1 -24 4 -3 5 7 8 21 7 50 -2 143 96 167 175 7 23 6 24
-35 17 -23 -4 -56 -14 -72 -22 -23 -12 -33 -13 -42 -4 -8 8 -7 10 5 5 31 -12
46 19 48 99 2 57 -1 76 -11 76 -9 0 -10 3 -2 8 6 4 10 24 9 44 -3 35 1 39 51
74 65 45 70 56 10 20 -50 -29 -97 -36 -77 -12 10 12 9 14 -6 10 -15 -4 -18 2
-21 37 -3 44 13 99 29 99 11 0 11 -12 3 -62 -4 -21 -10 -35 -15 -32 -5 3 -6
-2 -3 -10 9 -24 13 -20 39 37 17 36 25 70 25 109 0 90 -14 107 -55 68 -21 -19
-21 -19 -22 3 0 12 1 17 4 10 3 -9 10 -7 24 6 19 17 20 28 15 192 -3 96 -3
218 0 272 8 112 -5 105 144 87z m680 -43 c0 -8 -3 -8 -9 2 -5 7 -13 11 -18 8
-5 -3 -10 0 -10 8 0 10 5 11 19 4 10 -5 18 -15 18 -22z m-2044 -142 c-1 -8 -5
-17 -8 -21 -5 -4 -4 16 1 34 3 9 9 -1 7 -13z m1109 -225 c-3 -5 -12 -10 -18
-10 -7 0 -6 4 3 10 19 12 23 12 15 0z m57 -207 c-5 -10 -11 -25 -14 -33 -4
-12 -7 -10 -17 7 -9 19 -9 22 2 17 8 -3 17 2 20 10 4 9 9 16 12 16 3 0 2 -8
-3 -17z m-24 -89 c1 -20 0 -35 -3 -33 -7 8 -12 79 -5 74 4 -2 7 -21 8 -41z
m1712 -50 c0 -8 -19 -13 -24 -6 -3 5 1 9 9 9 8 0 15 -2 15 -3z m-1696 -49 c8
-25 11 -43 5 -40 -5 4 -9 14 -9 23 0 13 -2 14 -9 4 -7 -11 -9 -10 -14 3 -4 10
-3 14 4 10 6 -4 7 3 3 19 -10 43 3 29 20 -19z m1757 -42 c12 -16 12 -17 -2 -6
-9 7 -20 9 -24 5 -5 -4 -5 -1 -1 6 9 16 11 15 27 -5z m-1704 -65 c1 -10 0 -18
-2 -18 -2 0 -9 8 -14 18 -7 14 -6 19 3 19 6 0 13 -9 13 -19z m-102 -67 c3 -5
2 -12 -3 -15 -5 -3 -9 1 -9 9 0 17 3 19 12 6z m-45 -205 c1 -104 -1 -190 -3
-192 -2 -2 -43 -15 -93 -29 -49 -14 -137 -49 -196 -78 -104 -51 -107 -51 -102
-27 23 103 74 201 156 299 62 74 226 227 234 219 2 -3 4 -89 4 -192z m98 -2
c-11 -11 -18 -13 -23 -5 -4 7 -1 10 7 9 7 -2 12 5 11 16 -1 13 2 15 10 7 8 -8
7 -15 -5 -27z m45 -52 c-11 -15 -30 -32 -41 -38 -12 -6 -19 -14 -14 -19 4 -5
1 -5 -6 -1 -16 10 -2 36 39 70 38 32 50 26 22 -12z m-87 -24 c5 -7 3 -8 -6 -3
-10 6 -12 4 -7 -8 3 -9 2 -19 -3 -22 -11 -7 -14 28 -3 38 9 9 11 9 19 -5z
m-434 -55 c2 -10 -4 -37 -14 -61 -34 -83 -50 -150 -39 -170 8 -15 3 -29 -24
-66 -31 -44 -46 -92 -58 -181 -2 -16 -4 27 -3 97 l1 128 27 9 c29 10 38 33 73
184 18 76 30 94 37 60z m451 -80 c-7 -2 -19 -2 -25 0 -7 3 -2 5 12 5 14 0 19
-2 13 -5z m-73 -45 c2 -163 -2 -344 -8 -349 -4 -4 -83 -10 -176 -13 -93 -4
-172 -9 -177 -12 -5 -3 -9 0 -9 5 0 6 -16 11 -35 11 -21 0 -35 -5 -35 -12 0
-9 -4 -8 -10 2 -16 25 -11 112 10 157 46 102 211 205 395 246 42 10 45 8 45
-35z m95 17 c6 0 17 4 25 10 13 8 13 7 0 -10 -8 -10 -14 -21 -12 -24 2 -3 -2
-7 -10 -9 -10 -3 -10 -2 1 6 15 11 4 21 -20 17 -9 -2 -16 3 -16 11 0 8 5 10
11 6 6 -5 16 -8 21 -7z m-18 -32 c-4 -3 -2 -12 4 -19 7 -8 6 -14 -2 -20 -7 -4
-9 -3 -5 4 3 6 2 13 -4 17 -10 6 -5 25 7 25 4 0 3 -3 0 -7z m50 -78 c7 -11 12
-33 13 -50 l0 -29 -17 24 c-9 13 -17 31 -18 39 0 9 -4 22 -9 29 -5 8 -3 11 6
10 7 -2 18 -12 25 -23z m-49 -22 c-1 -10 2 -29 6 -43 6 -23 6 -23 -5 -6 -15
24 -20 66 -9 66 5 0 8 -8 8 -17z m-43 -3 c3 -5 2 -10 -4 -10 -5 0 -13 5 -16
10 -3 6 -2 10 4 10 5 0 13 -4 16 -10z m-745 -211 c0 -16 -4 -29 -10 -29 -5 0
-10 16 -10 36 0 21 4 33 10 29 6 -3 10 -19 10 -36z m-13 -61 c-3 -8 -6 -5 -6
6 -1 11 2 17 5 13 3 -3 4 -12 1 -19z m1815 -30 c-11 -11 -12 -9 -6 6 6 15 4
17 -7 11 -8 -4 -11 -5 -7 0 4 4 3 15 -4 24 -7 9 -1 6 12 -6 20 -18 22 -25 12
-35z m196 27 c-3 -3 -9 2 -12 12 -6 14 -5 15 5 6 7 -7 10 -15 7 -18z m-2051 9
c-3 -3 -12 -4 -19 -1 -8 3 -5 6 6 6 11 1 17 -2 13 -5z m1534 -17 c-10 -9 -11
-8 -5 6 3 10 9 15 12 12 3 -3 0 -11 -7 -18z m-1343 -13 c-12 -12 -17 -13 -23
-3 -5 8 -4 10 4 5 6 -4 14 0 17 9 4 9 9 13 12 10 3 -3 -1 -13 -10 -21z m563 3
c-10 -9 -11 -8 -5 6 3 10 9 15 12 12 3 -3 0 -11 -7 -18z m-424 6 c-4 -3 -1
-13 6 -22 11 -14 10 -14 -5 -2 -16 12 -16 31 -1 31 4 0 3 -3 0 -7z m388 -2 c3
-5 2 -12 -3 -15 -5 -3 -9 1 -9 9 0 17 3 19 12 6z m435 2 c-8 -3 -18 -11 -22
-17 -5 -7 -8 -4 -8 7 0 11 7 17 23 16 15 0 17 -2 7 -6z m55 -3 c4 -6 -1 -7
-12 -3 -16 6 -17 5 -3 -13 14 -18 14 -18 -2 -5 -10 7 -15 17 -12 22 7 12 21
11 29 -1z m-1090 -18 c-3 -3 -11 0 -18 7 -9 10 -8 11 6 5 10 -3 15 -9 12 -12z
m1303 -18 c-3 -14 -5 -12 -10 9 -3 19 -2 25 4 19 6 -6 8 -18 6 -28z m318 -6
c12 -22 13 -33 5 -36 -6 -2 -9 -8 -6 -13 4 -5 -1 -6 -10 -2 -10 3 -13 8 -6 12
7 5 6 15 -3 33 -12 23 -12 38 0 38 2 0 11 -14 20 -32z m-46 18 c0 -2 -9 -6
-20 -9 -11 -3 -18 -1 -14 4 5 9 34 13 34 5z m354 -26 c-6 -6 -10 -3 -10 10 0
13 4 16 10 10 7 -7 7 -13 0 -20z m-504 14 c0 -8 -19 -13 -24 -6 -3 5 1 9 9 9
8 0 15 -2 15 -3z m-1530 -8 c0 -2 -8 -10 -17 -17 -16 -13 -17 -12 -4 4 13 16
21 21 21 13z m190 0 c0 -2 -8 -10 -17 -17 -16 -13 -17 -12 -4 4 13 16 21 21
21 13z m40 0 c0 -2 -8 -10 -17 -17 -16 -13 -17 -12 -4 4 13 16 21 21 21 13z
m40 0 c0 -2 -8 -10 -17 -17 -16 -13 -17 -12 -4 4 13 16 21 21 21 13z m430 0
c0 -3 -4 -8 -10 -11 -5 -3 -10 -1 -10 4 0 6 5 11 10 11 6 0 10 -2 10 -4z m454
-8 c4 4 7 3 6 -3 -9 -43 34 -58 149 -53 57 2 91 -1 91 -7 0 -18 -57 -108 -95
-153 -36 -41 -87 -79 -70 -52 15 25 33 145 25 166 -5 13 -25 27 -51 35 -27 9
-51 27 -68 49 -14 19 -19 29 -10 23 9 -7 19 -9 23 -5z m340 -28 l-6 -30 126 0
c94 0 126 3 126 13 1 18 17 -12 92 -172 37 -79 68 -152 68 -161 0 -10 -16 -52
-36 -93 -69 -146 -77 -309 -20 -432 35 -76 57 -97 105 -104 42 -6 43 -7 73
-78 23 -54 29 -81 24 -106 l-6 -34 -98 -7 c-123 -9 -260 -29 -431 -63 l-133
-27 -19 23 c-16 20 -19 40 -19 145 0 170 -4 162 93 175 133 19 137 20 137 45
0 66 -110 394 -165 490 -45 78 -45 79 -26 100 43 47 101 210 101 282 0 31 8
64 16 64 2 0 1 -13 -2 -30z m-87 -2 c-3 -8 -6 -5 -6 6 -1 11 2 17 5 13 3 -3 4
-12 1 -19z m428 -7 c-6 -5 -25 10 -25 20 0 5 6 4 14 -3 8 -7 12 -15 11 -17z
m-1856 2 c14 11 15 10 1 -7 -14 -18 -13 -19 3 -13 16 6 17 -7 17 -184 0 -186
-1 -191 -22 -209 -19 -15 -21 -22 -11 -37 6 -10 16 -17 22 -15 7 1 11 -23 11
-71 0 -61 -3 -74 -20 -85 -11 -7 -20 -17 -20 -22 0 -6 9 -18 20 -27 17 -15 20
-30 20 -99 0 -79 -1 -82 -26 -88 -33 -9 -31 -49 4 -54 20 -3 22 -8 22 -72 0
-65 -1 -68 -26 -74 -33 -9 -31 -49 4 -54 21 -3 22 -7 22 -123 l0 -121 -54 46
c-63 54 -76 58 -43 14 13 -18 33 -46 43 -63 15 -25 12 -24 -20 10 -38 41 -40
39 -20 -26 7 -20 6 -21 -25 -5 -36 19 -39 12 -11 -24 11 -14 20 -34 20 -44 0
-17 -2 -18 -17 -4 -36 30 -44 31 -33 3 16 -41 13 -57 -9 -50 -12 3 -21 0 -25
-10 -8 -22 -27 -18 -65 15 -19 16 -39 26 -45 23 -6 -3 -8 -3 -4 2 4 4 -20 30
-53 57 -52 44 -62 48 -76 37 -10 -8 -14 -9 -10 -2 4 6 3 14 -3 18 -6 4 -8 11
-5 16 7 10 -64 75 -77 72 -4 -2 -7 1 -5 5 1 4 -22 38 -52 75 -51 63 -71 83
-55 55 4 -7 4 -10 -1 -6 -4 4 -15 2 -23 -5 -13 -10 -14 -9 -2 10 12 18 11 25
-4 47 -9 15 -21 24 -26 21 -6 -3 -8 0 -5 7 3 7 -8 28 -24 45 -16 18 -26 34
-23 37 3 3 1 6 -4 6 -5 0 -36 52 -69 115 -44 84 -64 113 -75 109 -12 -4 -12
-3 -3 7 8 8 9 18 3 30 -6 10 -24 55 -40 101 -17 46 -33 90 -37 98 -3 8 -5 21
-4 28 1 6 -3 12 -9 12 -6 0 -9 4 -6 9 4 5 1 22 -6 38 -6 15 -11 31 -10 34 1 4
-7 52 -18 106 -11 55 -22 137 -26 182 l-7 81 513 0 c486 0 512 1 499 18 -11
14 -11 15 1 5 11 -10 17 -10 29 0z m526 -21 l162 3 -5 -75 c-4 -73 -5 -76 -49
-122 -40 -40 -45 -51 -45 -89 1 -59 56 -167 129 -252 43 -51 58 -76 57 -95 -1
-15 -3 -287 -3 -605 l-1 -578 -62 5 c-35 4 -78 9 -97 12 -23 5 -36 2 -42 -7
-7 -11 -9 -10 -9 4 0 12 -8 17 -27 17 -16 0 -53 7 -83 15 -30 8 -72 15 -93 15
-27 0 -36 4 -31 12 5 7 2 9 -8 5 -9 -3 -19 -3 -23 1 -4 4 -10 7 -13 8 -4 0
-16 4 -27 9 -75 31 -114 43 -119 38 -3 -4 -6 -1 -6 5 0 7 -3 11 -7 10 -5 -1
-37 13 -72 30 -35 17 -68 29 -74 25 -6 -3 -7 -1 -3 5 5 8 0 12 -13 12 -12 0
-21 5 -21 10 0 6 -5 10 -11 10 -6 0 -25 6 -42 14 -18 8 -45 17 -62 21 l-30 7
25 13 c36 18 117 34 218 42 51 4 92 12 100 20 17 17 37 17 51 -1 7 -8 42 -17
84 -21 40 -3 109 -15 155 -26 105 -24 102 -24 89 6 -7 14 -20 25 -29 25 -12 0
-15 5 -11 17 5 12 2 15 -10 10 -15 -5 -16 -3 -7 13 15 27 12 32 -9 20 -17 -9
-19 -7 -16 11 3 12 12 30 21 40 24 26 0 25 -34 -2 -29 -23 -27 -25 -52 44 -6
17 -14 25 -21 21 -9 -5 -10 12 -5 67 10 112 18 133 50 137 35 4 45 30 20 51
-20 16 -20 17 13 89 28 61 37 72 58 72 20 0 25 5 25 24 0 13 -5 26 -10 28 -6
2 6 39 27 85 31 69 41 82 65 87 21 4 28 11 28 30 0 13 -6 26 -12 29 -9 2 -13
30 -14 88 -1 93 -20 159 -63 224 l-27 41 20 16 c18 13 19 18 7 32 -10 12 -23
15 -42 11 -25 -6 -32 0 -75 57 -67 91 -113 188 -68 143 14 -14 40 -15 179 -13z
m-465 -171 c0 -116 -4 -192 -10 -196 -7 -4 -10 62 -10 189 0 124 4 196 10 196
6 0 10 -70 10 -189z m99 171 c17 1 31 6 31 10 0 4 6 8 13 8 7 0 21 -25 31 -54
11 -30 43 -87 72 -126 30 -39 54 -73 54 -75 0 -3 -245 -105 -254 -105 -3 0 -6
82 -6 181 0 153 2 180 14 170 7 -6 28 -10 45 -9z m144 -45 c15 -35 46 -87 68
-115 42 -57 45 -62 28 -62 -25 0 -105 114 -129 185 -27 78 -3 72 33 -8z m1687
13 c0 -15 11 -48 25 -71 25 -44 33 -89 16 -89 -22 0 -99 70 -138 125 -23 33
-42 62 -43 65 0 3 31 4 70 2 69 -4 70 -4 70 -32z m745 -8 c-2 -20 -9 -77 -15
-127 -6 -49 -20 -130 -31 -178 -12 -49 -22 -94 -23 -100 -2 -7 -8 -25 -15 -40
-6 -16 -9 -33 -5 -38 3 -5 0 -9 -6 -9 -7 0 -10 -6 -7 -14 3 -8 3 -16 -1 -18
-14 -5 -52 -110 -45 -122 3 -6 3 -8 -2 -4 -4 4 -26 -32 -49 -80 -22 -48 -43
-89 -46 -92 -21 -18 -49 -81 -44 -96 4 -14 3 -15 -3 -6 -8 10 -12 10 -22 -2
-7 -8 -9 -21 -5 -28 4 -7 4 -10 -1 -6 -13 12 -34 -12 -28 -30 3 -9 3 -14 -2
-10 -9 9 -114 -120 -115 -141 0 -8 -3 -11 -7 -8 -9 10 -54 -34 -47 -45 3 -5 2
-7 -3 -6 -4 1 -31 -20 -58 -47 -28 -28 -71 -66 -95 -85 -24 -19 -55 -45 -67
-58 -13 -12 -28 -22 -33 -22 -6 0 -10 -8 -10 -17 0 -15 -2 -16 -10 -3 -8 12
-10 12 -16 -3 -3 -9 -10 -14 -15 -11 -5 3 -9 -2 -9 -10 0 -9 -6 -13 -14 -10
-8 3 -17 0 -22 -7 -5 -8 -3 -10 6 -4 9 5 11 4 6 -4 -4 -6 -11 -9 -16 -6 -8 5
-100 -42 -100 -52 0 -3 6 -3 13 0 8 3 14 -1 14 -8 0 -10 -6 -11 -24 -2 -15 7
-27 7 -31 1 -4 -5 -32 -20 -62 -34 -30 -14 -58 -29 -61 -33 -3 -5 -9 -8 -13
-7 -4 1 -41 -12 -84 -28 -93 -36 -305 -90 -390 -98 -34 -4 -62 -10 -62 -13 0
-3 -29 -6 -63 -6 -56 0 -65 2 -74 22 -6 13 -8 21 -3 18 4 -2 8 232 8 520 0
367 -3 523 -11 518 -6 -4 -7 -1 -1 8 14 24 16 51 2 43 -10 -6 -10 -5 -2 7 16
19 19 289 4 289 -6 0 -9 4 -6 8 3 5 -7 9 -22 10 -15 0 -36 2 -47 4 -14 2 -20
-2 -19 -15 2 -14 -1 -15 -13 -6 -11 10 -11 14 -1 20 20 13 3 20 -23 10 -13 -5
-18 -10 -11 -10 6 -1 12 -6 12 -12 0 -5 -4 -7 -10 -4 -15 9 -12 -12 5 -28 8
-8 11 -18 7 -22 -4 -4 0 -5 8 -3 8 3 14 10 13 15 -1 5 4 10 12 10 10 0 10 -5
-3 -23 l-17 -23 -37 42 c-60 68 -91 115 -84 132 9 24 28 18 96 -27 62 -42 65
-43 144 -42 62 0 97 7 149 27 46 18 67 22 67 14 0 -7 -15 -44 -33 -82 -19 -39
-46 -107 -61 -153 -15 -45 -39 -96 -52 -111 -24 -29 -31 -74 -16 -99 5 -7 24
-15 43 -18 30 -5 39 -1 73 34 39 41 41 62 5 62 -10 0 -19 4 -19 8 0 13 71 176
83 190 9 12 12 11 18 -5 13 -31 9 -194 -6 -288 -8 -49 -15 -113 -15 -141 l0
-51 51 5 51 5 -7 -44 c-3 -24 -17 -67 -31 -95 -13 -28 -24 -54 -24 -58 0 -4
22 -31 49 -59 69 -73 69 -85 1 -108 l-55 -18 45 4 c181 19 620 70 735 85 229
31 289 49 216 65 -24 5 -28 10 -23 28 3 12 14 28 24 35 24 18 23 28 -11 71
-26 33 -61 93 -61 105 0 2 12 6 28 8 l27 3 -2 95 c-2 57 -15 153 -32 240 -17
84 -26 149 -21 154 30 30 81 -59 88 -156 4 -63 7 -68 43 -98 l39 -31 28 19
c76 55 89 102 28 102 -30 0 -32 3 -60 90 -16 49 -42 110 -57 137 -15 26 -37
65 -49 86 l-20 37 69 0 c81 0 207 22 249 44 60 31 102 105 102 181 l0 30 80
-3 80 -4 -5 -36z m-2245 -283 c52 -80 67 -171 44 -251 -3 -10 -13 -18 -22 -18
-15 0 -17 13 -17 98 0 91 -2 103 -32 160 -39 77 -20 85 27 11z m-53 -26 c23
-48 28 -71 28 -133 0 -118 13 -110 -190 -110 l-175 0 0 93 0 92 138 56 c75 32
145 57 154 58 11 1 26 -19 45 -56z m-326 -30 c-12 -20 -14 -14 -5 12 4 9 9 14
11 11 3 -2 0 -13 -6 -23z m-98 -38 c-3 -9 -8 -14 -10 -11 -3 3 -2 9 2 15 9 16
15 13 8 -4z m47 -95 c0 -47 -4 -80 -10 -80 -6 0 -10 33 -10 80 0 47 4 80 10
80 6 0 10 -33 10 -80z m795 2 c-3 -3 -11 0 -18 7 -9 10 -8 11 6 5 10 -3 15 -9
12 -12z m2 -54 c-3 -8 -6 -5 -6 6 -1 11 2 17 5 13 3 -3 4 -12 1 -19z m-787
-52 c0 -2 -8 -10 -17 -17 -16 -13 -17 -12 -4 4 13 16 21 21 21 13z m40 0 c0
-2 -8 -10 -17 -17 -16 -13 -17 -12 -4 4 13 16 21 21 21 13z m150 0 c0 -2 -8
-10 -17 -17 -16 -13 -17 -12 -4 4 13 16 21 21 21 13z m40 0 c0 -2 -8 -10 -17
-17 -16 -13 -17 -12 -4 4 13 16 21 21 21 13z m110 0 c0 -2 -8 -10 -17 -17 -16
-13 -17 -12 -4 4 13 16 21 21 21 13z m40 0 c0 -2 -8 -10 -17 -17 -16 -13 -17
-12 -4 4 13 16 21 21 21 13z m110 0 c0 -2 -8 -10 -17 -17 -16 -13 -17 -12 -4
4 13 16 21 21 21 13z m40 0 c0 -2 -8 -10 -17 -17 -16 -13 -17 -12 -4 4 13 16
21 21 21 13z m200 -17 c0 -5 4 -8 8 -5 4 2 14 0 22 -5 11 -7 10 -8 -8 -6 -25
4 -55 27 -34 27 7 0 12 -5 12 -11z m-740 -114 c0 -50 -4 -85 -10 -85 -6 0 -10
35 -10 85 0 50 4 85 10 85 6 0 10 -35 10 -85z m60 62 c0 -19 17 -31 97 -71
l97 -48 18 24 c9 12 17 25 17 28 0 3 -39 24 -87 47 l-87 42 123 0 c67 1 122
-1 122 -4 0 -3 -18 -41 -40 -85 l-40 -80 -120 0 -120 0 0 85 c0 50 4 85 10 85
6 0 10 -10 10 -23z m375 1 c-17 -56 -72 -143 -93 -146 -12 -2 -22 -1 -22 3 0
3 18 41 40 85 31 61 45 80 61 80 16 0 19 -4 14 -22z m-355 -162 c0 -2 -8 -10
-17 -17 -16 -13 -17 -12 -4 4 13 16 21 21 21 13z m270 0 c0 -2 -8 -10 -17 -17
-16 -13 -17 -12 -4 4 13 16 21 21 21 13z m40 0 c0 -2 -8 -10 -17 -17 -16 -13
-17 -12 -4 4 13 16 21 21 21 13z m-430 -10 c0 -2 -8 -10 -17 -17 -16 -13 -17
-12 -4 4 13 16 21 21 21 13z m21 -19 c-10 -9 -11 -8 -5 6 3 10 9 15 12 12 3
-3 0 -11 -7 -18z m19 -87 c0 -40 -4 -70 -10 -70 -6 0 -10 30 -10 70 0 40 4 70
10 70 6 0 10 -30 10 -70z m217 0 l-32 -70 -72 0 -73 0 0 70 0 70 104 0 104 0
-31 -70z m80 0 c-26 -56 -36 -70 -54 -70 -13 0 -23 2 -23 5 0 2 14 34 32 70
25 51 37 65 54 65 22 0 22 -1 -9 -70z m-147 -94 c0 -2 -8 -10 -17 -17 -16 -13
-17 -12 -4 4 13 16 21 21 21 13z m40 0 c0 -2 -8 -10 -17 -17 -16 -13 -17 -12
-4 4 13 16 21 21 21 13z m21 -19 c-10 -9 -11 -8 -5 6 3 10 9 15 12 12 3 -3 0
-11 -7 -18z m-211 -128 c0 -71 -4 -108 -10 -104 -6 3 -10 52 -10 111 0 63 4
104 10 104 6 0 10 -44 10 -111z m155 94 c-18 -49 -35 -146 -35 -208 0 -88 -14
-115 -29 -59 -6 21 -16 68 -23 104 l-12 65 -7 -40 c-4 -28 -7 -10 -8 58 l-1
97 61 0 c54 0 60 -2 54 -17z m80 0 c-22 -56 -28 -90 -34 -200 -6 -117 -7 -121
-25 -108 -16 12 -18 27 -18 107 1 51 8 119 17 151 8 32 15 60 15 62 0 3 12 5
26 5 21 0 25 -3 19 -17z m-871 -72 c12 -13 14 -21 6 -26 -6 -4 -9 -1 -8 7 2 7
-2 12 -8 11 -6 -1 -11 5 -11 13 0 18 0 18 21 -5z m501 -411 c3 -5 1 -10 -4
-10 -6 0 -11 5 -11 10 0 6 2 10 4 10 3 0 8 -4 11 -10z m742 -226 c-3 -3 -12
-4 -19 -1 -8 3 -5 6 6 6 11 1 17 -2 13 -5z m-80 -10 c-3 -3 -12 -4 -19 -1 -8
3 -5 6 6 6 11 1 17 -2 13 -5z"/>
<path d="M2060 4108 c0 -66 24 -130 60 -163 20 -18 20 -17 4 28 -9 25 -14 54
-12 64 6 28 39 -28 45 -77 3 -22 10 -43 16 -47 17 -10 2 148 -17 185 -15 29
-68 72 -88 72 -5 0 -8 -28 -8 -62z"/>
<path d="M1660 3983 c0 -43 27 -107 66 -158 36 -47 49 -44 24 5 -11 21 -20 47
-20 56 0 30 37 -13 60 -70 l21 -51 -5 63 c-9 98 -53 164 -123 186 -21 7 -23 4
-23 -31z"/>
<path d="M1390 3907 c-19 -6 -35 -19 -35 -27 0 -38 143 -95 203 -81 19 5 15 9
-28 24 -28 10 -48 22 -45 27 8 13 76 0 115 -23 l35 -20 -25 27 c-30 34 -103
72 -151 80 -18 3 -50 0 -69 -7z"/>
<path d="M1888 3908 c-16 -5 -28 -13 -28 -17 0 -16 67 -71 110 -90 25 -11 61
-20 80 -20 l35 0 -40 20 c-22 11 -47 27 -55 36 -26 28 49 7 98 -27 33 -23 40
-26 33 -11 -19 34 -99 97 -139 109 -46 14 -57 14 -94 0z"/>
<path d="M1979 3716 c-26 -61 -33 -104 -25 -160 9 -56 26 -61 26 -7 0 44 8 71
21 71 14 0 10 -73 -6 -121 l-15 -44 20 25 c26 33 60 123 60 161 0 37 -21 89
-43 108 -15 12 -19 8 -38 -33z"/>
<path d="M1126 3678 c-13 -52 -6 -123 19 -173 l25 -50 -6 57 c-3 32 -1 59 4
62 15 9 32 -49 33 -108 0 -43 2 -47 10 -27 20 51 23 139 5 186 -26 67 -78 98
-90 53z"/>
<path d="M1675 3620 c-23 -45 -30 -126 -14 -180 l13 -45 7 58 c3 32 9 60 12
64 12 11 19 -50 14 -105 l-6 -57 25 53 c41 85 32 188 -20 231 -12 10 -17 7
-31 -19z"/>
<path d="M1315 3575 c-22 -36 -29 -64 -33 -121 -3 -51 -1 -74 7 -74 6 0 11 10
11 23 1 12 7 36 14 52 l13 30 8 -26 c6 -25 -1 -64 -21 -114 -7 -17 -6 -18 8
-7 8 7 28 40 43 73 31 71 31 127 -3 180 l-20 32 -27 -48z"/>
<path d="M910 3520 c29 -40 62 -68 102 -85 54 -22 57 -19 15 16 -21 17 -36 33
-33 36 7 7 47 -16 80 -46 l30 -26 -18 30 c-46 74 -99 108 -164 103 l-30 -2 18
-26z"/>
<path d="M1429 3452 c23 -46 81 -99 129 -119 47 -19 50 -10 9 22 -41 30 -54
55 -30 55 9 0 38 -22 64 -49 27 -26 49 -45 49 -42 0 3 -14 30 -30 59 -42 73
-99 112 -162 112 l-48 0 19 -38z"/>
<path d="M934 3291 c-42 -19 -84 -63 -84 -87 0 -24 107 -18 166 10 52 24 85
54 48 43 -11 -3 -37 -9 -59 -13 -36 -6 -39 -6 -26 9 15 19 70 36 116 38 26 0
27 2 10 9 -36 15 -128 11 -171 -9z"/>
<path d="M1176 3174 c-77 -28 -123 -77 -140 -146 -5 -23 -3 -28 11 -28 35 0
119 48 156 88 40 45 51 78 15 45 -29 -26 -68 -46 -76 -39 -9 10 38 54 82 75
35 17 37 20 16 20 -14 0 -43 -7 -64 -15z"/>
<path d="M1376 3067 c-32 -42 -65 -115 -66 -144 0 -33 31 -104 44 -100 6 2 24
24 40 50 21 34 30 63 33 111 4 46 2 66 -6 66 -6 0 -11 -10 -11 -22 -1 -13 -9
-39 -20 -58 l-19 -35 -1 37 c0 20 9 57 20 82 10 25 17 46 15 46 -2 0 -15 -15
-29 -33z"/>
<path d="M3015 3828 c-27 -10 -115 -65 -115 -72 0 -2 24 5 53 15 58 20 93 24
101 10 7 -11 -47 -31 -81 -31 -15 0 -22 -4 -17 -11 13 -21 137 -5 188 25 25
15 46 31 46 35 0 16 -67 41 -107 40 -21 0 -51 -5 -68 -11z"/>
<path d="M2816 3601 c-3 -5 14 -12 39 -16 47 -7 118 -54 82 -55 -10 0 -34 7
-54 15 -48 20 -50 19 -23 -10 43 -46 210 -89 210 -54 0 21 -32 65 -63 86 -50
34 -177 57 -191 34z"/>
<path d="M2633 3502 c-8 -5 3 -12 30 -19 24 -7 54 -22 68 -33 l24 -21 -40 6
c-22 4 -50 13 -62 21 -36 23 -27 -2 10 -30 49 -38 100 -56 156 -56 57 0 58 8
15 67 -33 44 -166 87 -201 65z"/>
<path d="M2835 3258 c-36 -19 -86 -72 -106 -110 -27 -52 -24 -54 16 -9 34 37
95 70 95 51 0 -5 -19 -25 -42 -46 -42 -36 -43 -36 -13 -30 45 11 102 51 135
98 17 22 30 45 30 50 0 12 -91 9 -115 -4z"/>
<path d="M2926 3030 c-12 -4 -3 -9 28 -18 24 -6 57 -23 73 -37 l28 -25 -45 14
c-25 7 -54 17 -65 21 -12 4 -5 -7 18 -29 59 -53 197 -90 197 -52 0 23 -44 79
-77 99 -36 20 -130 37 -157 27z"/>
<path d="M2745 2955 c17 -13 33 -24 36 -25 9 0 51 -80 43 -80 -5 0 -28 19 -52
43 l-44 42 16 -38 c21 -52 50 -87 98 -119 55 -38 68 -36 68 7 0 72 -42 126
-137 174 -55 28 -65 27 -28 -4z"/>
<path d="M3247 2874 c-7 -56 -10 -62 -40 -76 -18 -8 -47 -19 -64 -22 -49 -11
-50 -26 -1 -27 71 -2 102 -12 115 -39 7 -14 13 -18 13 -10 1 30 18 42 86 59
64 17 67 19 39 26 -16 4 -47 11 -67 16 -42 11 -56 30 -67 92 l-7 42 -7 -61z"/>
<path d="M1770 2386 c0 -32 4 -36 80 -75 44 -23 80 -39 80 -36 0 21 -61 90
-101 115 -27 16 -51 30 -54 30 -3 0 -5 -15 -5 -34z"/>
<path d="M1772 2003 c3 -27 11 -31 158 -80 85 -28 156 -52 158 -52 1 -1 2 14
2 32 l0 33 -149 47 c-82 26 -155 47 -161 47 -6 0 -10 -12 -8 -27z"/>
<path d="M1770 1520 c0 -25 8 -35 47 -60 l48 -29 13 25 c8 14 12 27 10 28 -34
23 -106 66 -111 66 -4 0 -7 -13 -7 -30z"/>
<path d="M3651 4527 c-19 -34 -47 -81 -62 -105 l-29 -43 33 -19 c30 -19 32
-19 36 -3 5 24 90 170 108 184 11 10 9 15 -14 30 -15 11 -30 19 -33 19 -3 0
-20 -28 -39 -63z"/>
<path d="M1128 4473 c-61 -44 -75 -58 -64 -67 21 -17 126 -163 126 -175 0 -16
8 -14 40 9 l29 20 -30 32 c-35 39 -35 43 -8 62 19 13 26 13 62 0 23 -8 44 -20
48 -26 5 -8 19 -3 45 17 l37 28 -54 17 c-54 16 -58 21 -44 65 4 13 -1 30 -15
48 -35 45 -80 37 -172 -30z m127 -17 c0 -10 -19 -32 -43 -49 -42 -31 -44 -31
-58 -13 -19 26 -19 27 24 58 42 31 77 33 77 4z"/>
<path d="M3764 4461 c-52 -32 -77 -106 -53 -154 29 -56 76 -90 148 -106 l41
-9 0 33 c0 29 -3 32 -24 28 -33 -7 -91 23 -105 53 -16 36 -14 58 10 88 31 39
81 36 125 -8 19 -19 34 -43 34 -55 0 -24 1 -25 34 -10 l25 12 -19 36 c-21 42
-52 72 -97 95 -42 21 -81 20 -119 -3z"/>
<path d="M962 4338 c-89 -43 -121 -124 -65 -168 33 -25 58 -21 119 21 49 34
64 36 64 11 0 -33 -77 -89 -107 -78 -13 5 -14 1 -9 -26 3 -17 8 -33 10 -35 9
-9 105 48 130 77 35 42 42 74 22 105 -31 47 -75 43 -163 -15 -31 -20 -33 -21
-40 -4 -9 25 48 74 88 74 24 0 30 3 25 16 -3 9 -6 22 -6 30 0 19 -17 17 -68
-8z"/>
<path d="M4022 4264 c-36 -25 -29 -73 18 -130 29 -36 37 -51 29 -61 -26 -30
-114 64 -93 99 5 8 -2 9 -26 4 -19 -3 -35 -8 -37 -9 -7 -8 32 -75 65 -109 55
-58 124 -61 153 -7 15 29 6 58 -36 110 -38 48 -44 69 -19 69 25 0 74 -56 74
-84 0 -29 6 -31 44 -16 l26 10 -31 51 c-50 80 -116 109 -167 73z"/>
<path d="M1225 4160 c-3 -5 -1 -10 4 -10 6 0 11 5 11 10 0 6 -2 10 -4 10 -3 0
-8 -4 -11 -10z"/>
<path d="M290 1751 c0 -5 4 -21 10 -35 8 -22 6 -28 -15 -42 -30 -20 -24 -34
15 -34 23 0 30 -6 40 -32 l12 -33 16 33 c12 24 22 32 42 32 39 0 43 10 14 33
-22 17 -25 25 -19 54 l6 35 -30 -18 c-28 -16 -31 -16 -55 -1 -29 19 -36 21
-36 8z"/>
<path d="M4473 1578 c18 -49 17 -56 -8 -76 -33 -26 -32 -32 9 -32 29 0 36 -5
45 -30 5 -16 13 -30 16 -30 3 0 11 14 16 30 9 25 16 30 45 30 40 0 43 12 9 34
-22 15 -25 22 -19 53 l7 36 -31 -18 c-29 -17 -32 -17 -56 -2 -30 20 -40 21
-33 5z"/>
<path d="M447 1559 c-27 -16 -49 -67 -42 -99 8 -38 41 -79 73 -91 32 -12 87 5
107 34 30 43 13 116 -35 154 -18 15 -78 16 -103 2z m91 -45 c41 -28 18 -104
-31 -104 -53 0 -77 75 -35 104 12 9 27 16 33 16 6 0 21 -7 33 -16z"/>
<path d="M563 1362 c-40 -26 -72 -50 -72 -53 -1 -3 5 -14 13 -24 13 -18 14
-18 41 3 26 21 29 21 40 5 13 -17 6 -48 -18 -80 -5 -7 -2 -22 9 -39 l18 -27
13 40 13 39 52 -2 c37 -1 55 -6 65 -20 15 -21 13 -24 -67 -86 -33 -26 -34 -28
-18 -44 16 -16 19 -15 54 12 77 61 73 60 99 32 l24 -26 -55 -52 c-52 -49 -54
-53 -39 -71 16 -17 18 -17 41 7 14 13 28 24 33 24 4 0 20 -14 37 -31 l29 -31
-29 -24 c-27 -24 -27 -26 -12 -43 16 -18 20 -16 84 44 66 62 66 64 48 83 l-18
21 -23 -27 -24 -27 -33 33 -33 33 27 24 c26 23 26 23 8 40 -11 10 -17 22 -14
26 3 5 1 9 -4 9 -8 0 -80 84 -102 119 -7 12 -12 12 -23 3 -12 -10 -14 -8 -10
11 3 15 -9 45 -34 85 -21 34 -40 61 -43 61 -3 0 -37 -22 -77 -47z m97 -48 c18
-27 20 -38 11 -47 -10 -9 -18 -5 -37 18 -27 33 -30 51 -11 58 6 3 13 6 14 6 1
1 11 -15 23 -35z"/>
<path d="M4328 1357 c-49 -42 -64 -81 -43 -113 23 -36 62 -31 107 13 38 37 38
37 38 12 0 -29 -28 -59 -53 -59 -18 0 -21 -9 -11 -34 9 -23 19 -20 57 14 49
43 64 83 43 115 -24 37 -62 33 -108 -12 -33 -32 -38 -34 -38 -17 0 20 33 58
57 65 9 3 9 9 0 26 l-12 22 -37 -32z"/>
<path d="M4226 1207 c-76 -43 -95 -132 -39 -177 63 -50 145 -6 173 91 8 26 6
29 -14 29 -15 0 -22 -6 -23 -21 -3 -30 -29 -66 -53 -74 -32 -10 -70 20 -70 53
0 31 36 72 63 72 18 0 22 17 9 37 -6 9 -18 6 -46 -10z"/>
<path d="M4087 1063 c-16 -16 -13 -21 50 -80 63 -59 69 -62 83 -45 15 16 11
22 -50 79 -62 59 -67 62 -83 46z"/>
<path d="M3979 953 c-27 -25 -48 -50 -47 -54 2 -4 29 -35 62 -69 55 -58 59
-60 77 -44 17 15 17 17 -9 39 -23 20 -25 25 -13 39 15 17 65 14 85 -5 6 -5 19
0 33 13 26 24 29 36 11 35 -60 -2 -68 3 -68 36 0 73 -58 78 -131 10z m87 -4
c3 -6 -6 -24 -22 -40 -25 -27 -29 -28 -44 -14 -14 15 -12 19 13 41 31 26 42
29 53 13z"/>
<path d="M947 919 c-11 -6 -25 -26 -33 -45 -12 -29 -12 -39 0 -69 17 -40 68
-75 109 -75 43 0 87 49 87 95 0 53 -53 105 -106 105 -22 0 -47 -5 -57 -11z
m104 -50 c26 -26 21 -57 -12 -81 -53 -40 -112 21 -75 77 20 31 58 33 87 4z"/>
<path d="M3888 872 c-4 -10 -106 -90 -121 -95 -9 -3 -9 -8 2 -20 12 -16 15
-15 41 3 l28 20 41 -51 c23 -29 41 -56 41 -61 0 -4 11 -1 25 8 l25 16 -45 53
c-25 29 -45 57 -45 64 0 6 11 17 25 23 28 13 30 19 13 36 -14 14 -25 15 -30 4z"/>
<path d="M1102 748 l-52 -73 22 -17 c21 -16 23 -15 36 13 18 35 21 36 68 4 44
-30 65 -31 87 -7 21 23 22 56 1 76 -16 16 -100 76 -106 76 -2 0 -27 -33 -56
-72z m120 -17 c13 -10 15 -17 7 -27 -9 -11 -17 -9 -44 9 -27 17 -31 24 -22 39
12 18 14 17 59 -21z"/>
<path d="M3697 728 c-14 -11 -15 -20 -7 -53 5 -22 12 -66 15 -97 6 -56 7 -57
30 -46 19 8 23 16 19 37 -5 21 0 29 27 45 30 18 33 18 45 2 12 -17 14 -17 43
0 l30 17 -74 44 c-40 23 -76 47 -80 53 -8 14 -28 13 -48 -2z m73 -77 c0 -5 -6
-11 -14 -14 -9 -4 -16 3 -18 18 -4 21 -3 23 13 14 11 -5 19 -14 19 -18z"/>
<path d="M1330 688 c0 -7 -33 -35 -72 -62 l-71 -49 24 -18 c19 -14 25 -15 27
-4 5 23 28 24 62 4 25 -16 31 -25 26 -43 -4 -18 0 -25 18 -34 23 -10 24 -9 30
31 3 23 6 68 8 101 2 54 0 59 -25 73 -21 11 -27 11 -27 1z m0 -88 c0 -13 -5
-18 -15 -14 -16 7 -19 17 -8 27 12 13 23 7 23 -13z"/>
<path d="M3583 657 c-21 -12 -20 -13 18 -80 21 -38 39 -73 39 -78 0 -11 21
-11 38 0 11 6 4 26 -30 89 -40 74 -45 79 -65 69z"/>
<path d="M1433 541 c-47 -89 -49 -83 37 -126 30 -15 58 -32 61 -38 6 -8 29 21
29 35 0 2 -25 14 -55 28 -59 27 -59 28 -45 50 8 13 14 12 45 -4 31 -17 38 -18
46 -5 13 21 12 24 -26 38 -19 7 -35 19 -35 27 0 20 13 18 70 -11 46 -23 50
-24 59 -7 20 33 11 -7 -18 -83 l-29 -75 35 -15 c87 -37 112 -40 141 -18 35 26
53 78 40 116 -11 30 -34 45 -124 78 -31 12 -85 37 -119 55 -35 19 -64 34 -66
34 -2 0 -23 -36 -46 -79z m304 -83 c19 -16 16 -44 -9 -73 -21 -23 -26 -24 -61
-13 -40 12 -41 14 -11 85 12 31 15 32 41 22 15 -5 33 -15 40 -21z"/>
<path d="M3425 573 c-27 -14 -51 -27 -53 -28 -2 -2 15 -37 37 -77 23 -41 38
-78 34 -81 -13 -14 9 -6 67 23 78 39 97 67 81 120 -22 73 -79 88 -166 43z
m109 -35 c9 -12 16 -30 16 -39 0 -18 -45 -59 -64 -59 -11 0 -61 89 -54 95 39
30 82 32 102 3z"/>
<path d="M3345 541 c-6 -5 -38 -19 -73 -31 -34 -13 -65 -26 -67 -30 -3 -4 7
-36 21 -70 14 -35 26 -72 27 -82 2 -23 1 -23 95 12 68 26 79 34 75 50 -6 22
-14 25 -28 11 -6 -4 -23 -13 -40 -19 -16 -5 -37 -13 -46 -17 -11 -4 -18 0 -22
14 -4 17 2 23 34 32 41 13 44 16 30 37 -7 11 -14 11 -44 -1 -19 -9 -38 -13
-41 -9 -16 16 -1 31 49 47 30 11 55 22 54 25 -3 22 -16 39 -24 31z"/>
<path d="M1806 393 c-10 -43 -22 -83 -27 -89 -7 -8 -1 -14 17 -18 14 -4 27 -6
28 -4 6 8 47 170 44 173 -2 1 -12 5 -23 9 -19 5 -23 -1 -39 -71z"/>
<path d="M3077 445 c-27 -7 -50 -15 -53 -17 -2 -2 5 -33 16 -69 11 -35 20 -72
20 -81 0 -22 11 -28 38 -22 18 5 19 10 11 32 -14 35 -6 49 33 57 44 10 68 32
68 65 0 51 -38 61 -133 35z m87 -34 c8 -13 -14 -28 -51 -36 -29 -6 -33 -4 -33
13 0 12 8 23 18 25 30 8 61 7 66 -2z"/>
<path d="M1899 401 c-45 -46 -35 -117 21 -146 35 -18 140 -19 140 -1 -1 27
-17 37 -42 27 -49 -19 -98 6 -98 49 0 58 67 79 113 36 22 -20 28 -22 38 -10
15 18 -4 42 -48 61 -53 21 -91 17 -124 -16z"/>
<path d="M2802 388 c-43 -8 -52 -13 -47 -26 3 -9 11 -49 17 -89 13 -82 11 -81
99 -62 67 15 89 37 89 92 -1 45 -12 67 -47 85 -25 14 -37 14 -111 0z m106 -61
c20 -41 7 -65 -40 -77 -22 -6 -41 -10 -43 -8 -1 2 -6 26 -10 55 -6 45 -4 52
12 56 40 11 68 2 81 -26z"/>
<path d="M2107 372 c-21 -23 -22 -56 -2 -72 8 -6 34 -18 57 -25 51 -15 56 -29
11 -33 -22 -2 -38 3 -52 17 l-20 20 -16 -22 c-15 -21 -14 -23 22 -39 75 -34
143 -14 143 42 0 31 -25 50 -82 64 -16 3 -28 11 -28 16 0 16 53 11 79 -6 19
-14 25 -14 32 -3 15 24 10 35 -24 47 -49 18 -101 15 -120 -6z"/>
<path d="M2688 374 c-3 -3 -2 -22 3 -42 17 -74 13 -77 -41 -30 -27 24 -49 49
-50 56 0 8 -9 10 -27 6 -16 -4 -29 -7 -30 -8 0 -1 1 -40 4 -88 6 -84 7 -88 29
-88 23 0 24 2 17 57 l-6 58 51 -44 c29 -23 52 -47 52 -52 0 -5 14 -9 31 -9 24
0 29 3 25 18 -3 9 -6 52 -8 95 -2 71 -3 77 -23 77 -12 0 -24 -2 -27 -6z"/>
<path d="M2395 360 c3 -5 -12 -45 -35 -89 -22 -44 -40 -83 -40 -86 0 -3 14 -5
30 -5 19 0 30 5 29 13 -4 33 1 38 44 35 35 -2 43 -7 45 -25 3 -18 10 -23 33
-23 16 0 29 2 29 4 0 3 -16 39 -35 82 -19 42 -35 83 -35 90 0 9 -12 14 -36 14
-20 0 -33 -4 -29 -10z m44 -77 c11 -21 9 -23 -13 -23 -24 0 -25 2 -14 25 6 14
12 24 13 23 1 -2 8 -13 14 -25z"/>
</g>
</svg>
