<svg xmlns="http://www.w3.org/2000/svg" version="1.1" xmlns:xlink="http://www.w3.org/1999/xlink" width="75" height="75" x="0" y="0" viewBox="0 0 64 64" style="enable-background:new 0 0 512 512" xml:space="preserve" class=""><g><path d="M61.703 55.309A4.372 4.372 0 0 0 58.56 54h-4.378l-5.976-2.243a2.392 2.392 0 0 0-1.338-1.233l-7.68-2.792a6.01 6.01 0 0 1-2.635-1.891l-5.031-6.29a5.975 5.975 0 0 1-1.294-4.245l.706-8.47A2.994 2.994 0 0 0 33 24v-4c0-1.04-.533-1.957-1.339-2.495L32.997 1.08A1 1 0 0 0 32 0H3a1.001 1.001 0 0 0-.998 1.071L3.146 17.14A2.994 2.994 0 0 0 1 20v4c0 1.32.863 2.431 2.05 2.831l.843 13.493a6.026 6.026 0 0 0 .976 2.909l-2.326 6.985A10.297 10.297 0 0 0 2 53.54c0 2.794 1.088 5.42 3.063 7.398A10.392 10.392 0 0 0 12.46 64H58.4a4.595 4.595 0 0 0 4.363-3.137c.095-.27.134-.651.196-1.326.021-.45.041-.91.041-1.097a4.363 4.363 0 0 0-1.297-3.131zM28.58 31H5.314l-.25-4h23.85zM5.877 40l-.438-7h22.974l-.178 2.14A7.96 7.96 0 0 0 29.404 40H5.877zM30.916 2l-1.22 15H5.141L4.074 2h26.842zM3 20c0-.552.449-1 1-1h26c.551 0 1 .448 1 1v4c0 .552-.449 1-1 1H4c-.551 0-1-.448-1-1zm1 33.54c0-.925.147-1.826.439-2.685l1.933-5.806a24.365 24.365 0 0 1 5.692 16.932 8.392 8.392 0 0 1-5.586-2.458A8.41 8.41 0 0 1 4 53.54zm3.354-10.419-.445-.495A3.972 3.972 0 0 1 6.456 42H30.92l2.974 3.717L18.568 62h-4.496a26.375 26.375 0 0 0-6.718-18.879zm22.97 9.616L40.43 62H21.314l8.883-9.438c.041.06.072.125.127.175zM43.39 62 31.676 51.263c-.049-.045-.109-.065-.163-.099l3.654-3.882a7.989 7.989 0 0 0 3.338 2.33l7.68 2.791a.396.396 0 0 1 .22.552A15.163 15.163 0 0 0 44.978 62h-1.59zm17.572-2.574c-.023.255-.063.681-.09.788A2.604 2.604 0 0 1 58.4 62H47.016a13.151 13.151 0 0 1 1.162-8.117l5.47 2.054c.113.042.232.063.352.063h4.56c.656 0 1.266.253 1.729.723.459.45.711 1.061.711 1.717 0 .172-.02.592-.039.986z" fill="#000000" opacity="1" data-original="#000000" class=""></path><path d="M39 38a.997.997 0 0 0 .707-.293l3-3a1 1 0 1 0-1.414-1.414l-3 3A1 1 0 0 0 39 38zM36 35a1 1 0 0 0 1-1v-3a1 1 0 1 0-2 0v3a1 1 0 0 0 1 1zM41 41a1 1 0 0 0 1 1h3a1 1 0 1 0 0-2h-3a1 1 0 0 0-1 1z" fill="#000000" opacity="1" data-original="#000000" class=""></path></g></svg>