<svg xmlns="http://www.w3.org/2000/svg" version="1.1" xmlns:xlink="http://www.w3.org/1999/xlink" width="75" height="75" x="0" y="0" viewBox="0 0 64 64" style="enable-background:new 0 0 512 512" xml:space="preserve" class=""><g><g fill="none" stroke="#4c4c4c" stroke-miterlimit="10" stroke-width="2"><path d="M14 64V53.753a11.177 11.177 0 0 0-2.154-6.597l-.41-.56A2.261 2.261 0 0 1 13.26 43h.117M18 48.05V64M20 0c0 14-7 16.709-7 21.828v4.954c0 .945.64 2.622 2.897 4.218H18.5c1.544-.691 3.338-2.965 4.517-5.004a3.96 3.96 0 0 1 6.977.185C31.027 28.171 32.502 30.33 34 31h3.103C39.36 29.404 40 27.727 40 26.782v-4.954a8.03 8.03 0 0 0-1.386-4.114l-1.379-2.234C35.278 12.299 33 7.987 33 0M23.657 35h.542l18.513 11.446" fill="" opacity="1"></path><path d="M23 64c0-12-3.43-14.38-4.968-15.918l-3.375-3.375a5.657 5.657 0 0 1-1.657-4c0-1.033.761-2.878.761-3.849M48.464 52.354l-6.804-4.207 2.104-3.402 6.804 4.207" fill="" opacity="1"></path><path d="m52.47 47.777-2.753.649-2.103 3.402.649 2.753 3.402 2.104 4.208-6.804zM55.873 49.881l3.402 2.103M51.665 56.685l3.402 2.104M53.769 53.283l3.402 2.103" fill="" opacity="1"></path><path stroke-width="2.00088" d="m55.096 58.767 4.208-6.808 3.404 2.104-4.208 6.808z" fill="" opacity="1"></path><path d="M38.306 43.944C36.234 47.588 33 52.484 33 62v2M29 35h6.727A4.273 4.273 0 0 1 40 39.273a3.91 3.91 0 0 1-.515 2.344M22 35H9.103M1 33h8v4H1z" fill="" opacity="1"></path></g></g></svg>