<svg xmlns="http://www.w3.org/2000/svg" version="1.1" xmlns:xlink="http://www.w3.org/1999/xlink" width="85" height="85" x="0" y="0" viewBox="0 0 512 512.003" style="enable-background:new 0 0 512 512" xml:space="preserve" class=""><g><path d="M99.555 268.39a7.497 7.497 0 0 0 7.48-6.914l4.785-61.074 18.106.746a7.46 7.46 0 0 0 6.207-2.863 7.496 7.496 0 0 0 1.308-6.707l-5.129-17.793a7.491 7.491 0 0 0-9.28-5.129 7.494 7.494 0 0 0-5.13 9.281l2.246 7.797-14.93-.617a7.495 7.495 0 0 0-7.788 6.91l-2.118 27.043-24.94-86.53c-6.642-23.056-22.15-43.626-44.845-59.497-6.215-4.344-10.035-11.313-10.488-19.117-.512-8.852 4.348-17.766 12.082-22.18 6.629-3.785 14.106-4.398 21.047-1.738 6.645 2.547 13.969.437 18.238-5.254 4.461-5.953 11.117-9.406 18.742-9.73 8.907-.38 17.754 4.581 22.036 12.347 3.77 6.848 4.242 14.781 1.293 21.77-10.766 25.511-12.946 51.18-6.301 74.23l6.484 22.512a7.502 7.502 0 0 0 14.414-4.156l-6.488-22.508c-5.68-19.719-3.707-41.934 5.71-64.25 4.747-11.246 4.024-23.942-1.976-34.836C113.246 7.297 99.18-.59 84.508.035c-12.203.52-22.895 6.102-30.102 15.719-.234.312-.5.39-.867.25-11.223-4.305-23.246-3.344-33.852 2.71C6.922 26-.78 40.16.067 54.79.78 67.207 6.93 78.34 16.933 85.336c19.847 13.879 33.343 31.637 39.023 51.352l36.395 126.277a7.504 7.504 0 0 0 7.203 5.426ZM206.617 447.566c-15.23-18.836-23.281-39.632-23.281-60.152V199.883a7.501 7.501 0 0 0-6.16-7.38 7.503 7.503 0 0 0-8.36 4.747l-21.511 57.363-17.192-5.73a7.504 7.504 0 0 0-6.758 1.031 7.493 7.493 0 0 0-3.113 6.082v88.176a7.5 7.5 0 1 0 15 0v-77.77l14.176 4.727a7.506 7.506 0 0 0 9.394-4.484l9.524-25.399v146.168c0 23.988 9.203 48.05 26.613 69.582 4.77 5.899 6.512 13.652 4.785 21.274-1.96 8.648-9.093 15.87-17.754 17.968-7.414 1.801-14.765.325-20.703-4.16-5.675-4.289-13.304-4.289-18.976 0-5.938 4.485-13.29 5.961-20.703 4.16-8.66-2.097-15.793-9.32-17.754-17.968-1.73-7.622.011-15.375 4.781-21.274 17.414-21.531 26.617-45.594 26.617-69.582v-11.176a7.5 7.5 0 0 0-7.5-7.5 7.497 7.497 0 0 0-7.5 7.5v11.176c0 20.516-8.05 41.316-23.281 60.152-7.672 9.493-10.496 21.891-7.746 34.024 3.238 14.289 14.562 25.762 28.844 29.226 11.867 2.88 23.687.477 33.28-6.77.31-.233.587-.233.9 0 6.945 5.25 15.062 7.958 23.519 7.958a41.38 41.38 0 0 0 9.758-1.188c14.285-3.464 25.605-14.937 28.847-29.226 2.75-12.133-.074-24.531-7.746-34.024ZM153.098 163.16a7.5 7.5 0 0 0 10.062 3.352 7.502 7.502 0 0 0 3.356-10.063l-8.02-16.031a7.494 7.494 0 0 0-10.059-3.352 7.495 7.495 0 0 0-3.355 10.059ZM191.867 175.32c1.922 0 3.84-.73 5.305-2.195l8.016-8.016a7.497 7.497 0 0 0 0-10.605 7.497 7.497 0 0 0-10.606 0l-8.016 8.016a7.497 7.497 0 0 0 0 10.605 7.47 7.47 0 0 0 5.301 2.195ZM100.98 301.379a7.497 7.497 0 0 0 0-10.606 7.497 7.497 0 0 0-10.605 0l-8.016 8.016a7.497 7.497 0 0 0 0 10.606 7.475 7.475 0 0 0 5.301 2.199c1.922 0 3.84-.735 5.305-2.2Zm0 0" style="stroke:none;fill-rule:nonzero;fill-opacity:1;" fill="#171151" data-original="#000000" class=""></path></g></svg>