<svg xmlns="http://www.w3.org/2000/svg" version="1.1" xmlns:xlink="http://www.w3.org/1999/xlink" width="75" height="75" x="0" y="0" viewBox="0 0 64 64" style="enable-background:new 0 0 512 512" xml:space="preserve" class=""><g><g data-name="Layer 32"><path d="m.583 20.4 8.729 4.009a64.821 64.821 0 0 1 6.26 3.3A39.042 39.042 0 0 0 28 32.514V36h2v-4a33.756 33.756 0 0 1 1.371-9.515L32.4 18.97a104.252 104.252 0 0 0 3.59-17.86L34.006.89a102.338 102.338 0 0 1-3.52 17.515l-1.034 3.516a35.744 35.744 0 0 0-1.4 8.563 37 37 0 0 1-11.452-4.49 66.85 66.85 0 0 0-6.456-3.405L1.417 18.58Z" fill="#171151" opacity="1" data-original="#000000"></path><path d="M41 53a6.006 6.006 0 0 0 6-6v-1.979c0-3.966.167-7.982.5-11.938.335-4.011.5-8.083.5-12.1V1h-2v19.979c0 3.966-.167 7.982-.5 11.938-.25 2.993-.407 6.02-.471 9.034a2.69 2.69 0 0 1-1.4-.732 4.16 4.16 0 0 0-6.4.634A2.57 2.57 0 0 1 35.086 43a4.819 4.819 0 0 0-4.732 3.8l-.847 3.814a101.524 101.524 0 0 1-28.145-6.546l-.724 1.864A103.544 103.544 0 0 0 38.313 53Zm-8.692-5.771A2.827 2.827 0 0 1 35.086 45a4.569 4.569 0 0 0 3.808-2.037 2.225 2.225 0 0 1 3.325-.33 4.682 4.682 0 0 0 2.792 1.316c0 .357-.011.715-.011 1.072V47a4 4 0 0 1-4 4h-2.687c-2.272 0-4.533-.1-6.788-.251ZM62.551 37.165a1 1 0 0 0-1.258.128L57 41.586l-2.293-2.293a.982.982 0 0 0-.82-.286 1 1 0 0 0-.735.463l-5 8a1 1 0 0 0 1.363 1.387l4.423-2.657 3.462 2.6a1 1 0 0 0 1.529-.429l4-10a1 1 0 0 0-.378-1.206Zm-5 9.252L54.6 44.2a1 1 0 0 0-1.115-.057L52.053 45l2.129-3.4 2.111 2.111a1 1 0 0 0 1.414 0l1.555-1.555ZM58.929 51.629A1 1 0 0 0 57.4 51.2l-3.462 2.6-4.423-2.654a1 1 0 0 0-1.363 1.387l5 8a1 1 0 0 0 .735.463.98.98 0 0 0 .82-.286L57 58.414l4.293 4.293A1 1 0 0 0 62 63a1 1 0 0 0 .929-1.371Zm-1.222 4.664a1 1 0 0 0-1.414 0L54.182 58.4 52.053 55l1.432.859A1 1 0 0 0 54.6 55.8l2.956-2.217 1.706 4.265Z" fill="#171151" opacity="1" data-original="#000000"></path></g></g></svg>