<svg xmlns="http://www.w3.org/2000/svg" version="1.1" xmlns:xlink="http://www.w3.org/1999/xlink" width="80" height="80" x="0" y="0" viewBox="0 0 6.827 6.827" style="enable-background:new 0 0 512 512" xml:space="preserve" fill-rule="evenodd" class=""><g><g fill="#333" fill-rule="nonzero"><path d="M3.053 3.03c-.168-.082-.321-.176-.466-.264-.461-.282-.83-.507-1.394-.053-.122.237-.104.442.02.639.14.221.41.44.765.683l.044.064a.712.712 0 0 1-.02.415.84.84 0 0 1-.203.306c-.015.085.11.19.323.305l.047.026.007.053c.043.291.098.382.163.372.084-.012.211-.12.349-.238.205-.176.432-.37.676-.376h.005c.238.006.47.19.688.361.155.123.302.238.403.253.081.011.148-.078.19-.372l.008-.053.047-.026c.213-.116.338-.22.323-.305a.839.839 0 0 1-.204-.306.712.712 0 0 1-.02-.415l.045-.064c.354-.243.624-.462.764-.683.124-.197.143-.402.02-.64-.564-.453-.932-.228-1.394.054-.163.1-.337.206-.537.297-.302.138-.33.124-.593-.006l-.056-.027zm-.355-.446c.139.085.286.175.449.254l.056.028c.182.09.201.1.41.004.187-.085.357-.189.516-.286.537-.329.965-.59 1.657-.022l.026.032c.174.322.151.601-.02.871-.153.243-.428.473-.788.721a.491.491 0 0 0 .02.255.65.65 0 0 0 .171.245l.026.037c.083.205-.067.39-.368.563-.07.411-.222.53-.423.5-.158-.022-.326-.155-.505-.295-.19-.15-.393-.31-.558-.317-.168.007-.363.174-.54.325-.163.14-.313.267-.458.288-.186.027-.327-.093-.395-.5-.3-.174-.452-.359-.368-.564l.025-.037a.65.65 0 0 0 .171-.245.491.491 0 0 0 .02-.255c-.359-.248-.635-.478-.788-.72-.17-.27-.193-.55-.02-.872l.027-.032c.692-.568 1.12-.307 1.657.022z" fill="#171151" opacity="1" data-original="#333333" class=""></path><path d="M3.413 3.17c.302 0 .577.085.777.222.212.145.343.349.343.578 0 .229-.13.433-.343.578-.2.137-.475.222-.777.222s-.576-.085-.776-.222c-.212-.145-.344-.35-.344-.578 0-.229.132-.433.344-.578.2-.137.475-.222.776-.222zm.657.397a1.174 1.174 0 0 0-.657-.184c-.258 0-.49.07-.656.184-.155.106-.25.249-.25.403s.095.296.25.402c.166.114.398.184.656.184s.49-.07.657-.184c.154-.106.25-.248.25-.402s-.096-.297-.25-.403z" fill="#171151" opacity="1" data-original="#333333" class=""></path><path d="M3.413 3.17c.11 0 .211.03.286.08a.29.29 0 0 1 .141.24.29.29 0 0 1-.141.24c-.075.05-.176.08-.286.08s-.21-.03-.285-.08a.29.29 0 0 1-.141-.24.29.29 0 0 1 .14-.24.52.52 0 0 1 .286-.08zm.167.258a.305.305 0 0 0-.167-.045.305.305 0 0 0-.167.045c-.028.019-.046.041-.046.062 0 .02.018.043.046.062.042.027.1.044.167.044a.305.305 0 0 0 .167-.044c.03-.019.047-.041.047-.062 0-.021-.018-.043-.047-.062zM4.32 4.663c.084 0 .156.05.204.13a.48.48 0 0 1 .063.243.48.48 0 0 1-.063.244c-.048.08-.12.13-.204.13-.084 0-.156-.05-.204-.13a.48.48 0 0 1-.063-.244.48.48 0 0 1 .063-.243c.048-.08.12-.13.204-.13zm.022.24c-.01-.017-.018-.027-.022-.027s-.012.01-.022.026a.266.266 0 0 0-.031.134c0 .055.012.102.031.134.01.017.018.026.022.026s.012-.01.022-.026a.266.266 0 0 0 .031-.134.266.266 0 0 0-.031-.134zM2.507 4.663c.084 0 .156.05.204.13a.48.48 0 0 1 .062.243.48.48 0 0 1-.062.244c-.048.08-.12.13-.204.13-.085 0-.156-.05-.205-.13a.48.48 0 0 1-.062-.244.48.48 0 0 1 .062-.243c.049-.08.12-.13.205-.13zm.022.24c-.01-.017-.018-.027-.022-.027s-.013.01-.022.026a.266.266 0 0 0-.032.134c0 .055.012.102.032.134.01.017.017.026.022.026s.012-.01.022-.026a.266.266 0 0 0 .031-.134.266.266 0 0 0-.031-.134zM2.987 1.036a.107.107 0 0 0 0 .214h.853a.107.107 0 0 0 0-.214zM3.093 1.382a.107.107 0 0 0 0 .213h.64a.107.107 0 0 0 0-.213zM2.987 1.727a.107.107 0 0 0 0 .213h.853a.107.107 0 0 0 0-.213zM3.093 2.072a.107.107 0 0 0 0 .213h.64a.107.107 0 0 0 0-.213zM2.987 2.417a.107.107 0 0 0 0 .214h.853a.107.107 0 0 0 0-.214z" fill="#171151" opacity="1" data-original="#333333" class=""></path></g><path fill="#ffffff" d="M4.24 2.766c-.164.1-.338.206-.538.297-.302.138-.33.124-.593-.006l-.056-.027c-.168-.082-.321-.176-.466-.264-.461-.282-.83-.507-1.394-.053-.122.237-.104.442.02.639.14.221.41.44.765.683l.044.064a.712.712 0 0 1-.02.415.84.84 0 0 1-.203.306c-.015.085.11.19.323.305l.047.026.007.053c.043.291.098.382.163.372.084-.012.211-.12.349-.238.205-.176.432-.37.676-.376h.005c.238.006.47.19.688.361.155.123.302.238.403.253.081.011.148-.078.19-.372l.008-.053.047-.026c.213-.116.338-.22.323-.305a.839.839 0 0 1-.204-.306.712.712 0 0 1-.02-.415l.045-.064c.355-.243.624-.462.764-.683.124-.197.143-.402.02-.64-.564-.453-.932-.228-1.394.054zm-.827.404c.302 0 .577.085.777.222.212.145.343.349.343.578 0 .229-.13.433-.343.578-.2.137-.475.222-.777.222s-.576-.085-.776-.222c-.212-.145-.344-.35-.344-.578 0-.229.132-.433.344-.578.2-.137.475-.222.776-.222zm-.906 1.493c.084 0 .156.05.204.13a.48.48 0 0 1 .062.243.48.48 0 0 1-.062.244c-.048.08-.12.13-.204.13-.085 0-.156-.05-.205-.13a.48.48 0 0 1-.062-.244.48.48 0 0 1 .062-.243c.049-.08.12-.13.205-.13zm1.813 0c.084 0 .156.05.204.13a.48.48 0 0 1 .063.243.48.48 0 0 1-.063.244c-.048.08-.12.13-.204.13-.084 0-.156-.05-.204-.13a.48.48 0 0 1-.063-.244.48.48 0 0 1 .063-.243c.048-.08.12-.13.204-.13z" opacity="1" data-original="#ebe5df" class=""></path><path fill="#ffffff" d="M3.699 3.73c-.075.05-.176.08-.286.08s-.21-.03-.285-.08a.29.29 0 0 1-.141-.24c0-.013 0-.026.002-.038a.985.985 0 0 0-.232.115c-.155.106-.25.249-.25.403s.095.296.25.402c.166.114.398.184.656.184s.49-.07.657-.184c.154-.106.25-.248.25-.402s-.096-.297-.25-.403a.985.985 0 0 0-.233-.115.256.256 0 0 1 .003.038.29.29 0 0 1-.141.24z" opacity="1" data-original="#ffeddf" class=""></path><path fill="#ffffff" d="M3.413 3.596a.305.305 0 0 0 .167-.044c.03-.019.047-.041.047-.062 0-.021-.018-.043-.047-.062a.305.305 0 0 0-.167-.045.305.305 0 0 0-.167.045c-.028.019-.046.041-.046.062 0 .02.018.043.046.062.042.027.1.044.167.044zM4.267 5.036c0 .055.012.102.031.134.01.017.018.026.022.026s.012-.01.022-.026a.266.266 0 0 0 .031-.134.266.266 0 0 0-.031-.133c-.01-.017-.018-.027-.022-.027s-.012.01-.022.026a.266.266 0 0 0-.031.134zM2.529 5.17a.266.266 0 0 0 .031-.134.266.266 0 0 0-.031-.133c-.01-.017-.018-.027-.022-.027s-.013.01-.022.026a.266.266 0 0 0-.032.134c0 .055.012.102.032.134.01.017.017.026.022.026s.012-.01.022-.026z" opacity="1" data-original="#ffeddf" class=""></path></g></svg>