<svg xmlns="http://www.w3.org/2000/svg" version="1.1" xmlns:xlink="http://www.w3.org/1999/xlink" width="75" height="75" x="0" y="0" viewBox="0 0 512 512" style="enable-background:new 0 0 512 512" xml:space="preserve" class=""><g><path d="m429.34 167.034 15.119-30.238a4.142 4.142 0 0 0-.776-4.781l-16.745-16.745a8.284 8.284 0 0 1-1.246-10.119l26.357-43.929c2.773-4.621 9.15-5.406 12.96-1.596l17.211 17.211a8.284 8.284 0 0 1 1.246 10.119l-12.58 20.967a4.14 4.14 0 0 0 .623 5.059l13.998 13.998c3.696 3.696 3.087 9.85-1.262 12.749l-48.903 32.602c-3.534 2.357-7.902-1.498-6.002-5.297zM429.34 212.319l15.119 30.238a4.142 4.142 0 0 1-.776 4.781l-16.745 16.745a8.284 8.284 0 0 0-1.246 10.119l26.357 43.929c2.773 4.621 9.15 5.406 12.96 1.595l17.211-17.211a8.284 8.284 0 0 0 1.246-10.119l-12.58-20.967a4.14 4.14 0 0 1 .623-5.059l13.998-13.998c3.696-3.696 3.087-9.85-1.262-12.749l-48.903-32.602c-3.534-2.356-7.902 1.499-6.002 5.298zM71.444 481.276l1.576 15.765a8.283 8.283 0 0 0 8.242 7.459H106.9a8.283 8.283 0 0 0 8.283-8.283v-48.451a75.465 75.465 0 0 1 7.968-33.751v0a33.134 33.134 0 0 0-2.067-33.197l-14.956-22.435a39.462 39.462 0 0 0-20.357-15.548h0a16.567 16.567 0 0 0-19.023 6.527l-5.756 8.634a39.472 39.472 0 0 0-5.45 12.319l-2.391 9.565a39.464 39.464 0 0 0 5.45 31.463h0a49.797 49.797 0 0 1 8.117 22.671l1.226 12.263M300.063 149.314l4.826-3.217a29.378 29.378 0 0 1 19.941-4.707l29.685 3.711c14.702 1.838 25.735 14.336 25.735 29.153V192.7a66.273 66.273 0 0 1-5.358 26.104l-11.861 27.675a29.38 29.38 0 0 1-27.004 17.806h0a29.38 29.38 0 0 1-22.57-10.571l-13.748-16.497a66.265 66.265 0 0 1-14.693-51.794l2.259-15.816a29.38 29.38 0 0 1 12.788-20.293z" style="stroke-width:15;stroke-linecap:round;stroke-linejoin:round;stroke-miterlimit:10;" fill="none" stroke="#171151" stroke-width="15" stroke-linecap="round" stroke-linejoin="round" stroke-miterlimit="10" data-original="#000000" opacity="1" class=""></path><path d="m75.185 87.858 34.263 46.499a43.746 43.746 0 0 1 7.133 14.989l.3 1.159a41.617 41.617 0 0 1-10.455 39.443h0a40.948 40.948 0 0 0-10.371 38.482h0a40.95 40.95 0 0 0 10.771 19.024l23.728 23.728a71.143 71.143 0 0 0 43.212 20.483l27.098 2.716a71.143 71.143 0 0 0 53.396-16.773l6.815-5.842a71.147 71.147 0 0 0 24.518-60.834v0a71.163 71.163 0 0 0-6.965-24.561l-30.911-62.905M347.117 144.175l-26.29-34.178a41.377 41.377 0 0 0-39.598-15.586h0a49.7 49.7 0 0 1-43.314-13.881l-67.67-67.67c-2.949-2.949-8.774-5.362-12.944-5.362H32.365c-6.794 0-10.698 7.728-6.669 13.197l28.632 38.856" style="stroke-width:15;stroke-linecap:round;stroke-linejoin:round;stroke-miterlimit:10;" fill="none" stroke="#171151" stroke-width="15" stroke-linecap="round" stroke-linejoin="round" stroke-miterlimit="10" data-original="#000000" opacity="1" class=""></path><path d="M156.6 189.733h0c-9.663 19.326-4.512 42.777 12.36 56.275L181.45 256M142.594 280.85h0a16.017 16.017 0 0 0-14.872 10.069l-3.753 9.382c-4.208 10.521 3.54 21.966 14.872 21.966h100.592M280.85 322.267h40.423a35.122 35.122 0 0 0 28.096-14.048h0a35.12 35.12 0 0 0 1.847-39.425l-4.099-6.688M289.133 289.133h0a48.573 48.573 0 0 0 23.412-25.494l3.038-7.639" style="stroke-width:15;stroke-linecap:round;stroke-linejoin:round;stroke-miterlimit:10;" fill="none" stroke="#171151" stroke-width="15" stroke-linecap="round" stroke-linejoin="round" stroke-miterlimit="10" data-original="#000000" opacity="1" class=""></path><path d="M321.273 322.267h0a75.585 75.585 0 0 1 13.004 54.935l-2.77 18.292a19.022 19.022 0 0 1-10.091 14.058h0a19.022 19.022 0 0 0-9.635 11.901l-19.32 70.84a16.568 16.568 0 0 1-15.983 12.208h-96.353c-8.616 0-15.794-6.604-16.509-15.191l-3.769-45.227a123.9 123.9 0 0 0-28.291-69.033v0c-9.646-11.576-10.267-28.202-1.511-40.465l8.795-12.317" style="stroke-width:15;stroke-linecap:round;stroke-linejoin:round;stroke-miterlimit:10;" fill="none" stroke="#171151" stroke-width="15" stroke-linecap="round" stroke-linejoin="round" stroke-miterlimit="10" data-original="#000000" opacity="1" class=""></path><path d="M206.3 396.817h0c34.479 19.702 52.111 59.56 43.496 98.325l-2.079 9.358" style="stroke-width:15;stroke-linecap:round;stroke-linejoin:round;stroke-miterlimit:10;" fill="none" stroke="#171151" stroke-width="15" stroke-linecap="round" stroke-linejoin="round" stroke-miterlimit="10" data-original="#000000" opacity="1" class=""></path></g></svg>