<svg xmlns="http://www.w3.org/2000/svg" version="1.1" xmlns:xlink="http://www.w3.org/1999/xlink" width="75" height="75" x="0" y="0" viewBox="0 0 64 64" style="enable-background:new 0 0 512 512" xml:space="preserve" class=""><g><g data-name="Layer 32"><path d="m37.655 48.926 7.469-.934-.248-1.984-8 1a1 1 0 0 0-.771.545l-1 2 1.79.894ZM33.707 44.707l2-2a1 1 0 0 0 .188-1.154l-1-2-1.79.894.678 1.356-1.49 1.49ZM42 22v-2h-.172a5.789 5.789 0 0 1-4.121-1.707l-1.414 1.414A7.772 7.772 0 0 0 41.828 22ZM30.293 18.293A5.789 5.789 0 0 1 26.172 20H26v2h.172a7.772 7.772 0 0 0 5.535-2.293ZM28 23h2v3h-2zM38 23h2v3h-2z" fill="#171151" opacity="1" data-original="#000000" class=""></path><path d="M21.751 41.532c-.285-.2-.576-.393-.877-.574a6.737 6.737 0 0 0-3.46-.958 2.409 2.409 0 0 0-2.391 2.186A11.379 11.379 0 0 0 13 42a3.986 3.986 0 0 0-3.467 2.021c-.226-.009-.452-.021-.679-.021A2.816 2.816 0 0 0 6.1 47.56a2.646 2.646 0 0 0-.984 2.923 2.612 2.612 0 0 0 .494 4.553L5 62.923l2 .154.587-7.633 1.254.209a5.3 5.3 0 0 1 2.888 1.486 7.33 7.33 0 0 0 4.367 2.1l5.32.592a7.264 7.264 0 0 1 2.468.729 7.445 7.445 0 0 1 1.116.69l3.4 2.55 1.2-1.6-3.4-2.549a9.339 9.339 0 0 0-4.567-1.809l-5.321-.592a5.327 5.327 0 0 1-3.173-1.525 7.28 7.28 0 0 0-3.974-2.044l-2.644-.441a.624.624 0 0 1 .1-1.24 10.146 10.146 0 0 1 2.468.3l2.666.666.484-1.94-2.665-.667a12.2 12.2 0 0 0-2.52-.337A.741.741 0 0 1 7.743 49a12.882 12.882 0 0 1 4.081.662l.86.287.632-1.9-.859-.286a14.867 14.867 0 0 0-4.43-.754.832.832 0 0 1-.027-.155.855.855 0 0 1 .854-.854 16.437 16.437 0 0 1 3.986.491l1.918.479.484-1.94-1.918-.48a19.48 19.48 0 0 0-1.3-.271A1.981 1.981 0 0 1 13 44a9.357 9.357 0 0 1 3.486.671l3.143 1.257.742-1.856-3.142-1.258c-.053-.021-.108-.035-.161-.056a.522.522 0 0 1-.068-.223v-.121a.415.415 0 0 1 .414-.414 4.733 4.733 0 0 1 2.431.673 12.061 12.061 0 0 1 4.908 5.627l1.328 3.1a1 1 0 0 0 .212.313l2 2a1 1 0 0 0 .177.141l16 10 1.06-1.7-15.9-9.94-1.784-1.783-.826-1.921 3.325.416.76 1.521 1.79-.894-1-2a1 1 0 0 0-.771-.545l-5.086-.636a13.954 13.954 0 0 0-2.406-3.249l4.61-1.153A1 1 0 0 0 29 41v-3.371a9.8 9.8 0 0 0 10 0V41a1 1 0 0 0 .758.97l13.062 3.266a9.929 9.929 0 0 1 7.493 8.872L61 63.077l2-.154-.689-8.968a11.935 11.935 0 0 0-9-10.66L41 40.219v-4.174c.129-.132.264-.257.387-.4A18.624 18.624 0 0 0 45.111 29H46a3.991 3.991 0 0 0 2.33-7.237l.236-1.652A43.38 43.38 0 0 0 49 14a7.026 7.026 0 0 0-1.463-4.266l1.121-.982a.985.985 0 0 0 .241-1.1A1.048 1.048 0 0 0 47.926 7 5.229 5.229 0 0 1 43.9 5.112 11.4 11.4 0 0 0 35.116 1a20.947 20.947 0 0 0-8.293 1.7 6.293 6.293 0 0 0-3.761 4.965A7 7 0 0 0 19 14a43.38 43.38 0 0 0 .434 6.111l.236 1.652A3.991 3.991 0 0 0 22 29h.889a18.624 18.624 0 0 0 3.724 6.648c.123.14.258.265.387.4v4.174ZM46 27h-.368A18.632 18.632 0 0 0 46 23.37V23a2 2 0 0 1 0 4Zm1-13a41.46 41.46 0 0 1-.414 5.828l-.174 1.214A3.732 3.732 0 0 0 46 21a1 1 0 0 0-.293-.707A9.182 9.182 0 0 1 43 13.757v-.2a13.854 13.854 0 0 0 1.334-1.017l1.7-1.483A4.944 4.944 0 0 1 47 14ZM27.61 4.541A18.94 18.94 0 0 1 35.116 3a9.4 9.4 0 0 1 7.242 3.392 7.191 7.191 0 0 0 3.374 2.263l-2.714 2.376A12 12 0 0 1 35.116 14a18.957 18.957 0 0 1-7.506-1.54 4.308 4.308 0 0 1 0-7.919Zm-6.2 15.288A41.485 41.485 0 0 1 21 14a5 5 0 0 1 2.172-4.109A6.279 6.279 0 0 0 25 13.088v.669a9.182 9.182 0 0 1-2.707 6.536A1 1 0 0 0 22 21a3.732 3.732 0 0 0-.412.042ZM22 27a2 2 0 0 1 0-4v.37a18.632 18.632 0 0 0 .368 3.63Zm2-3.63V21.4a11.141 11.141 0 0 0 2.972-7.049A20.953 20.953 0 0 0 35.116 16a14 14 0 0 0 5.927-1.323A11.142 11.142 0 0 0 44 21.4v1.97a16.648 16.648 0 0 1-4.119 10.962 7.815 7.815 0 0 1-11.762 0A16.642 16.642 0 0 1 24 23.37Z" fill="#171151" opacity="1" data-original="#000000" class=""></path><path d="m53.757 60.155 2.024-2.53-1.562-1.25-2.019 2.531a9.692 9.692 0 0 1-4.511 3.145l.632 1.9a11.691 11.691 0 0 0 5.436-3.796ZM16 38v-2a11.959 11.959 0 0 0-10.691 6.545l1.781.91A9.968 9.968 0 0 1 16 38ZM15 33q.468 0 .929.033l.142-2C15.718 31.013 15.359 31 15 31a14.935 14.935 0 0 0-13.929 9.422l1.858.744A12.942 12.942 0 0 1 15 33Z" fill="#171151" opacity="1" data-original="#000000" class=""></path></g></g></svg>