<svg xmlns="http://www.w3.org/2000/svg" version="1.1" xmlns:xlink="http://www.w3.org/1999/xlink" width="75" height="75" x="0" y="0" viewBox="0 0 512 512" style="enable-background:new 0 0 512 512" xml:space="preserve" class=""><g><path d="M393.48 213.6V93.21c0-11.59-9.43-21.01-21.01-21.01h-.42c-10.1 0-18.57 6.91-20.59 16.81l-7.66 37.53-4.97-77.69c-.43-6.79-3.38-12.76-8.5-17.24-5.13-4.48-11.43-6.59-18.22-6.12l-1.34.09c-12.71.9-22.7 11.17-23.23 23.91l-2.28 54.37-10.1-67.54c-2.04-13.64-14.8-23.08-28.44-21.04l-1.43.21c-13.16 1.97-22.47 13.89-21.2 27.14l9.29 96.46-25.82-62.69a24.965 24.965 0 0 0-31.68-13.99l-1.38.5a24.966 24.966 0 0 0-15.3 31.07l29.31 92.5a5.99 5.99 0 0 0-6.41.11 6.005 6.005 0 0 0-2.49 6.58l12.13 44.56-27.56-21.86c-10.88-8.62-26.18-8.06-36.39 1.34l-.35.32c-11.26 10.37-12.02 27.71-1.73 39.48l81.84 93.57v82.52c0 3.31 2.69 6 6 6h4.46V491c0 3.31 2.69 6 6 6h125.84c3.31 0 6-2.69 6-6v-51.88h4.46c3.31 0 6-2.69 6-6v-18.73c2.12-.93 3.6-3.04 3.6-5.5v-36.14c0-2.46-1.48-4.57-3.6-5.5v-8.26l5.93-19.55c2.54-.11 4.76-1.8 5.5-4.25l10.88-36.14c.55-1.82.2-3.79-.93-5.31-.35-.47-.76-.87-1.22-1.21l3.46-11.43c.58-1.9.17-3.96-1.07-5.51a5.998 5.998 0 0 0-5.16-2.21c-.98.08-1.95.15-2.93.2l8.78-31.42c2.72-9.69 3.93-18.5 3.93-28.56zm-20.76 72.22c1.09 0 2.18-.01 3.26-.04l-1.68 5.52h-53.95c-13.27 0-24.07 10.8-24.07 24.07s10.8 24.07 24.07 24.07h39.35l-5.13 16.9c-.17.56-.26 1.15-.26 1.74v8.65H315c-13.27 0-24.07 10.8-24.07 24.07s10.8 24.07 24.07 24.07h39.32v12.23H219.56v-76.01c12.31-11.43 17.97-33.4 14.5-57.13-3.13-21.38-13-37.74-26.68-44.51l-11.45-42.05c50.95 38.96 113.88 78.42 176.79 78.42zm-14.79 117.06H315c-6.66 0-12.07-5.41-12.07-12.07s5.41-12.07 12.07-12.07h42.92v24.14zm-222.35-176.5.35-.32c5.83-5.38 14.59-5.7 20.8-.77l41.88 33.21.01-.01c.47.38 1 .69 1.58.91 10.9 4.17 19.32 18.09 21.99 36.31 2.56 17.47-.82 34.45-8.3 43.88l-79.14-90.47c-5.97-6.83-5.61-16.82.83-22.74zM343.86 485H230.02v-45.88h113.84zm23.68-157.55h-47.19c-6.66 0-12.07-5.41-12.07-12.07s5.41-12.07 12.07-12.07h54.46zm13.94-113.85c0 9.05-1.04 16.62-3.47 25.33l-9.73 34.82c-57.21-1.8-115.31-38.06-163.09-74.37L170.64 90.36a12.983 12.983 0 0 1 7.96-16.16l1.38-.5c6.58-2.39 13.82.81 16.48 7.28l41.2 100.08c1.13 2.75 4.1 4.26 6.99 3.54s4.81-3.44 4.53-6.4L236.03 41.48c-.66-6.89 4.18-13.1 11.03-14.12l1.43-.21c7.08-1.06 13.74 3.85 14.8 10.95l19.4 129.72c.46 3.06 3.16 5.26 6.25 5.1s5.55-2.65 5.68-5.74L299.53 50c.28-6.62 5.47-11.97 12.09-12.44l1.34-.09c3.64-.25 6.74.78 9.48 3.18s4.19 5.33 4.42 8.97l7.84 122.56c.19 3 2.58 5.4 5.58 5.6 3.02.21 5.69-1.84 6.29-4.79l16.66-81.59c.87-4.24 4.5-7.21 8.83-7.21h.42c4.97 0 9.01 4.04 9.01 9.01v120.4z" fill="#000000" opacity="1" data-original="#000000"></path></g></svg>